<svg width="108" height="86" viewBox="0 0 108 86" fill="none" xmlns="http://www.w3.org/2000/svg">
<path d="M88.8699 76.6773C89.4339 76.4104 89.7113 76.3667 89.8456 76.2082C100.379 63.0798 105.223 48.236 103.016 31.399C102.452 27.1211 100.799 23.1192 98.3272 19.5119C92.997 11.727 83.6962 8.45149 74.6863 11.1899C70.02 12.6103 65.7858 14.7014 62.6999 18.6998C63.1697 20.9498 63.7744 23.1332 64.062 25.3666C64.5124 28.8815 63.7781 32.1629 61.4122 34.9312C59.6317 37.0139 57.4903 37.8462 55.8022 37.0437C53.6769 36.0337 52.9527 34.0034 53.2615 31.9775C53.6841 29.1466 54.5309 26.352 55.4723 23.6315C56.0808 21.8724 57.1774 20.2769 58.0413 18.6416C53.7242 10.7846 44.5313 10.119 36.3337 17.1026C36.4541 18.3831 36.6643 19.7478 36.6903 21.1133C36.7845 26.026 35.3422 30.3653 31.4493 33.563C29.9892 34.7644 28.2057 35.6574 26.1962 34.6885C24.6441 33.9365 23.8779 31.8378 24.3162 29.3449C25.019 25.3876 27.0381 22.0429 29.4446 18.9074C30.2835 17.8179 31.1939 16.7859 32.0352 15.771C25.822 3.38982 10.8484 -1.46472 1.34282 7.90505C1.10487 6.91955 0.665012 6.1595 0.845717 5.58129C1.04698 4.94519 1.71952 4.33639 2.33004 3.9685C8.1358 0.500776 14.2303 -0.93523 20.7402 1.84421C25.5899 3.91988 29.5977 7.14485 32.9187 11.2354C33.3927 11.8152 33.8814 12.3895 34.3747 12.9537C34.447 13.036 34.597 13.0562 34.9351 13.1997C35.5554 12.9037 36.3508 12.5598 37.1016 12.1401C46.404 6.94578 52.5608 7.70053 60.568 15.2185C61.3816 14.5828 62.2367 13.9234 63.0836 13.2418C68.058 9.22565 73.7165 6.99462 80.1131 6.76359C90.6364 6.37628 99.678 12.2211 104.044 22.1647C106.419 27.5772 107.495 33.2425 107.387 39.1273C107.109 53.3927 102.737 66.1507 93.1996 76.9576C92.6976 77.5286 92.2057 78.1043 91.7239 78.6846C91.6618 78.7662 91.674 78.9127 91.5686 79.5134C94.281 79.1831 96.5702 78.0698 98.8964 77.1022C101.178 76.151 103.425 75.1038 105.874 74.0153C106.371 76.0205 105.641 77.1539 104.524 78.0356C103.237 79.0473 101.954 80.1833 100.475 80.7879C96.5071 82.42 92.5002 83.9911 88.3975 85.2119C85.1358 86.1893 83.6229 84.7939 84.0985 81.6751C85.1226 75.0668 86.1891 68.4596 87.2859 61.8664C87.457 60.8305 87.881 59.8438 88.2866 58.5118C90.2826 59.6031 90.0985 61.0127 90.0061 62.3298C89.6688 66.9824 89.2893 71.6338 88.8975 76.6839L88.8699 76.6773ZM27.6365 31.6161C32.4607 29.0557 34.4577 24.6291 32.9534 19.9854C30.3727 23.5122 27.8543 26.7309 27.6365 31.6161ZM56.8066 33.8807C60.8005 31.2746 61.7424 27.556 59.6279 23.213C57.6815 26.5727 56.0473 29.7334 56.8066 33.8807Z" fill="#BA6619"/>
</svg>
