<svg width="20" height="20" viewBox="0 0 20 20" fill="none" xmlns="http://www.w3.org/2000/svg">
<path fill-rule="evenodd" clip-rule="evenodd" d="M10 2C9.0625 2 8.16339 2.37242 7.50047 3.03534C6.83755 3.69826 6.46513 4.59737 6.46513 5.53488C6.46513 6.47239 6.83755 7.3715 7.50047 8.03442C8.16339 8.69734 9.0625 9.06977 10 9.06977C10.9375 9.06977 11.8366 8.69734 12.4996 8.03442C13.1625 7.3715 13.5349 6.47239 13.5349 5.53488C13.5349 4.59737 13.1625 3.69826 12.4996 3.03534C11.8366 2.37242 10.9375 2 10 2ZM7.58141 5.53488C7.58141 4.89343 7.83622 4.27825 8.2898 3.82467C8.74338 3.3711 9.35856 3.11628 10 3.11628C10.6415 3.11628 11.2566 3.3711 11.7102 3.82467C12.1638 4.27825 12.4186 4.89343 12.4186 5.53488C12.4186 6.17634 12.1638 6.79152 11.7102 7.2451C11.2566 7.69867 10.6415 7.95349 10 7.95349C9.35856 7.95349 8.74338 7.69867 8.2898 7.2451C7.83622 6.79152 7.58141 6.17634 7.58141 5.53488ZM10 10.186C8.27871 10.186 6.6921 10.5775 5.51703 11.2383C4.35908 11.8902 3.48838 12.877 3.48838 14.093V14.1689C3.48764 15.0337 3.4869 16.1187 4.43871 16.8941C4.9068 17.2752 5.56243 17.5468 6.44801 17.7254C7.33508 17.9055 8.49229 18 10 18C11.5077 18 12.6642 17.9055 13.5528 17.7254C14.4383 17.5468 15.0932 17.2752 15.5621 16.8941C16.5139 16.1187 16.5124 15.0337 16.5116 14.1689V14.093C16.5116 12.877 15.6409 11.8902 14.4837 11.2383C13.3079 10.5775 11.7221 10.186 10 10.186ZM4.60466 14.093C4.60466 13.4597 5.06755 12.7721 6.06401 12.2117C7.04336 11.661 8.4335 11.3023 10.0008 11.3023C11.5665 11.3023 12.9567 11.661 13.936 12.2117C14.9332 12.7721 15.3954 13.4597 15.3954 14.093C15.3954 15.0664 15.3656 15.6141 14.8566 16.0279C14.5812 16.2527 14.1198 16.4722 13.331 16.6314C12.5444 16.7907 11.469 16.8837 10 16.8837C8.53099 16.8837 7.4549 16.7907 6.66904 16.6314C5.8802 16.4722 5.4188 16.2527 5.14345 16.0287C4.63443 15.6141 4.60466 15.0664 4.60466 14.093Z" fill="black"/>
</svg>
