<svg width="8" height="10" viewBox="0 0 8 10" fill="none" xmlns="http://www.w3.org/2000/svg">
<path d="M6.82837 1.4023C5.2663 -0.134263 2.7337 -0.134263 1.17163 1.4023C0.800758 1.76463 0.506057 2.19745 0.304853 2.67531C0.103648 3.15317 0 3.66643 0 4.18492C0 4.70341 0.103648 5.21667 0.304853 5.69453C0.506057 6.17239 0.800758 6.6052 1.17163 6.96753L3.99975 9.75015L6.82837 6.96753C7.19924 6.6052 7.49394 6.17239 7.69515 5.69453C7.89635 5.21667 8 4.70341 8 4.18492C8 3.66643 7.89635 3.15317 7.69515 2.67531C7.49394 2.19745 7.19924 1.76463 6.82837 1.4023ZM3.99975 5.49997C3.66574 5.49997 3.35222 5.36997 3.11571 5.13396C2.88158 4.89932 2.75009 4.58139 2.75009 4.24992C2.75009 3.91845 2.88158 3.60052 3.11571 3.36588C3.35172 3.12987 3.66574 2.99987 3.99975 2.99987C4.33376 2.99987 4.64778 3.12987 4.88379 3.36588C5.11792 3.60052 5.24942 3.91845 5.24942 4.24992C5.24942 4.58139 5.11792 4.89932 4.88379 5.13396C4.64778 5.36997 4.33376 5.49997 3.99975 5.49997Z" fill="white"/>
</svg>
