<svg width="32" height="40" viewBox="0 0 32 40" fill="none" xmlns="http://www.w3.org/2000/svg">
<path d="M31.2176 6.25265C32.5264 4.51209 32.154 2.05657 30.3858 0.768099C28.6176 -0.520375 26.1232 -0.153888 24.8144 1.58667C23.5056 3.32723 23.878 5.78275 25.6462 7.07122C27.4144 8.3597 29.9088 7.99321 31.2176 6.25265Z" fill="#BA6619"/>
<path d="M23.0518 11.3027C23.0514 11.1711 23.0562 11.066 23.0606 10.9989C23.0626 10.9656 23.0647 10.9417 23.066 10.9285C23.066 10.9264 23.0661 10.9247 23.0663 10.9233C23.0665 10.9215 23.0667 10.9196 23.0668 10.9179C23.0668 10.918 23.0668 10.9177 23.0668 10.9179C23.1499 10.1549 22.5912 9.46814 21.8159 9.3829C21.0382 9.29749 20.3377 9.84848 20.2509 10.614C20.2465 10.6547 20.2189 10.9095 20.2184 11.3029C20.2263 12.0768 20.3012 13.397 21.0169 14.7113C21.3766 15.3632 21.9256 16.0129 22.7031 16.4781C23.4743 16.9442 24.4428 17.2043 25.5399 17.2043C25.5452 17.2043 25.5507 17.2043 25.556 17.2043C26.5791 17.2032 27.7207 16.9941 29.0306 16.552C29.7708 16.3019 30.1645 15.509 29.9108 14.7805C29.6567 14.0521 28.8512 13.6643 28.1113 13.9142C27.0229 14.2827 26.1781 14.4157 25.556 14.415C24.8791 14.412 24.4727 14.2712 24.179 14.0976C23.7492 13.8398 23.4711 13.4204 23.2825 12.8647C23.0985 12.3198 23.0495 11.694 23.0518 11.3027Z" fill="#BA6619"/>
<path d="M0.0010835 29.699C-0.0244141 30.2441 0.403202 30.7063 0.956889 30.7316C1.51058 30.7571 1.9798 30.3358 2.00583 29.7907C2.02867 29.3053 1.69118 28.8862 1.22568 28.7825L1.23152 28.6558C1.3367 28.6422 1.43709 28.6133 1.52988 28.57C1.97573 28.9856 2.56749 29.2531 3.22883 29.2838L7.17476 29.4667L7.19548 29.034L13.0481 29.281C13.8594 29.315 14.6241 28.9092 15.0416 28.2237L17.6826 23.8834L20.9838 27.5697L19.9811 31.5181L19.5515 31.4125L18.5933 35.1854C18.4238 35.8528 18.5341 36.523 18.8473 37.0813C18.8013 37.1406 18.7625 37.2058 18.7308 37.2757L18.5839 37.2396C18.6159 36.7712 18.305 36.3332 17.826 36.2155C17.2886 36.0836 16.744 36.4057 16.6101 36.9351C16.4759 37.4644 16.8031 38.0003 17.3409 38.1322C17.82 38.2497 18.3036 38.0065 18.4983 37.5779L18.6451 37.614C18.6126 38.0825 18.9237 38.5206 19.4026 38.6381C19.7844 38.7318 20.1686 38.5961 20.408 38.3203C20.4475 38.3318 20.4856 38.3457 20.5259 38.3557C20.6003 38.374 20.6745 38.3878 20.7489 38.3996C20.8273 38.7555 21.1025 39.0554 21.4856 39.1493C21.9646 39.2668 22.4485 39.0236 22.6431 38.595L22.7685 38.6257C22.7359 39.0942 23.047 39.5323 23.526 39.6499C24.0637 39.7819 24.608 39.4599 24.7422 38.9305C24.8765 38.4012 24.5489 37.8653 24.0111 37.7332C23.5325 37.6157 23.0488 37.8589 22.854 38.2875L22.7286 38.2567C22.7359 38.1528 22.7267 38.0505 22.7019 37.9527C23.2035 37.6042 23.5865 37.0855 23.747 36.4531L24.7052 32.6802L24.2755 32.5746L25.5601 27.5156C25.7361 26.8229 25.5529 26.082 25.0734 25.5467L19.6863 19.5308C20.1047 18.2899 20.7506 17.0643 21.4582 15.9139C21.1696 15.6048 20.9155 15.2573 20.7057 14.8773C19.971 13.5272 19.8736 12.1926 19.8642 11.306C19.8651 10.9131 19.8906 10.6482 19.8986 10.5762C19.9992 9.69142 20.7547 9.02504 21.6569 9.02504C21.7225 9.02504 21.7889 9.0287 21.8552 9.03603C22.8214 9.14201 23.523 10.0022 23.4194 10.9538L23.4146 11.0176C23.4102 11.0833 23.4056 11.1798 23.4059 11.3012C23.4049 11.4906 23.4171 12.1394 23.6113 12.7307C23.7452 12.5415 23.8764 12.3559 24 12.1786C25.1661 10.7852 25.3937 8.6196 24.1563 7.68845C23.9768 7.55336 23.7735 7.43605 23.5525 7.33914C23.5513 7.33844 23.5501 7.33757 23.5488 7.33687C23.439 7.29016 20.2155 5.57479 16.0607 5.56085C14.1887 5.5598 12.1094 5.92689 10.1211 7.01702C9.43749 7.39178 9.1919 8.24083 9.57242 8.91401C9.95293 9.58666 10.8156 9.82843 11.4994 9.45419C12.9861 8.63982 14.5549 8.35082 16.0607 8.35012C17.0032 8.34908 17.9147 8.46604 18.7349 8.63512C16.2099 11.3913 15.048 13.3915 13.9058 17.1241C13.5499 18.7166 13.943 19.7349 14.6239 20.4305L11.9212 24.8716L7.40353 24.6812L7.42442 24.243L3.47814 24.0603C2.78032 24.0279 2.1342 24.2662 1.63966 24.6783C1.57149 24.6455 1.49889 24.6207 1.42275 24.6038L1.42983 24.455C1.90296 24.3941 2.27798 24.0079 2.30082 23.5222C2.32668 22.9774 1.89906 22.5151 1.3452 22.49C0.791509 22.4645 0.322282 22.8858 0.296608 23.4306C0.273412 23.916 0.610724 24.3349 1.07588 24.4386L1.06879 24.5874C0.596027 24.6484 0.220823 25.0347 0.197982 25.5202C0.179921 25.9069 0.39063 26.251 0.712183 26.428C0.708287 26.4684 0.701913 26.5081 0.700142 26.5491C0.696601 26.6244 0.697309 26.6987 0.700142 26.7727C0.36106 26.9186 0.116708 27.2432 0.0984701 27.6314C0.0756285 28.1168 0.412763 28.5359 0.877917 28.6396L0.871897 28.7665C0.399306 28.8277 0.0242792 29.2139 0.0010835 29.699ZM19.7523 37.2561C19.929 37.2994 20.0537 37.4414 20.0822 37.6075L19.2935 37.4141C19.3978 37.2805 19.5756 37.2127 19.7523 37.2561ZM21.3767 37.9253C21.481 37.7918 21.659 37.724 21.8357 37.7674C22.0121 37.8108 22.1371 37.9529 22.1654 38.119L21.3767 37.9253ZM17.4758 37.5981C17.2382 37.5397 17.0937 37.3027 17.1528 37.0686C17.212 36.8343 17.4526 36.6917 17.6906 36.7503C17.8673 36.7935 17.9919 36.9356 18.0204 37.1015L17.6259 37.0048C17.531 36.9818 17.4351 37.0384 17.4112 37.1319C17.3874 37.2253 17.4453 37.3199 17.5404 37.3431L17.9349 37.4399C17.8306 37.5736 17.6525 37.6414 17.4758 37.5981ZM19.5379 38.104C19.3612 38.0606 19.2364 37.9185 19.2078 37.7524L19.9969 37.9459C19.8924 38.0796 19.7144 38.1474 19.5379 38.104ZM21.6209 38.6152C21.4442 38.5718 21.3194 38.4299 21.291 38.2636L22.0799 38.4573C21.9756 38.5908 21.7976 38.6586 21.6209 38.6152ZM23.8757 38.2682C24.1137 38.3264 24.2581 38.5636 24.199 38.7977C24.1399 39.0318 23.8989 39.1744 23.6612 39.1162C23.4845 39.0728 23.3597 38.9307 23.3314 38.7646L23.7255 38.8613C23.7399 38.8648 23.754 38.8664 23.7682 38.8664C23.8477 38.8664 23.9199 38.8136 23.9403 38.7343C23.964 38.6408 23.9061 38.5462 23.8112 38.523L23.4171 38.4263C23.5214 38.2924 23.6991 38.2248 23.8757 38.2682ZM23.9472 34.227L22.579 33.8812L22.4358 34.4299L23.8075 34.7764L23.6281 35.4827L22.2911 35.1449L22.1479 35.6936L23.4883 36.0323L23.4029 36.3691C23.2708 36.8891 22.9634 37.3271 22.5528 37.6311C22.419 37.4399 22.2173 37.2936 21.9704 37.233C21.4915 37.1155 21.0081 37.3586 20.8131 37.7871L20.6451 37.7458C20.6771 37.2774 20.3662 36.8394 19.8873 36.7219C19.614 36.6548 19.3391 36.7055 19.117 36.8408C18.8666 36.3548 18.8008 35.8038 18.9362 35.2703L19.8088 31.8352L24.2753 32.9345L23.9472 34.227ZM1.44665 29.7653C1.4355 30.0061 1.2278 30.1925 0.982563 30.1813C0.738034 30.1703 0.548927 29.9657 0.56026 29.725C0.568582 29.546 0.685446 29.3976 0.84516 29.3373L0.826391 29.7368C0.82161 29.8332 0.897217 29.9148 0.994604 29.919C0.997614 29.9192 1.00045 29.9192 1.00346 29.9192C1.09748 29.9192 1.17574 29.8463 1.17982 29.7529L1.19858 29.353C1.35246 29.4274 1.45515 29.5861 1.44665 29.7653ZM1.39601 25.1745C1.54953 25.2488 1.65223 25.4072 1.64373 25.5862C1.63523 25.7654 1.51819 25.9139 1.35812 25.9741L1.39601 25.1745ZM1.25861 28.0855L1.29633 27.2857C1.4502 27.36 1.55272 27.5186 1.54422 27.6978C1.53572 27.8766 1.41868 28.0253 1.25861 28.0855ZM3.4615 24.4084L7.05435 24.5749L6.8378 29.102L5.48554 29.0396L5.56133 27.6511L4.98622 27.6209L4.91096 29.0131L4.17206 28.979L4.24572 27.622L3.67096 27.5916L3.59748 28.9523L3.2453 28.9361C2.7017 28.9106 2.20485 28.6999 1.82115 28.3635C1.98529 28.1967 2.09118 27.9732 2.10304 27.7231C2.12588 27.2376 1.78839 26.8188 1.32324 26.7149L1.33138 26.5446C1.80433 26.4839 2.17989 26.0976 2.20273 25.6118C2.21565 25.3349 2.11101 25.0795 1.93288 24.8918C2.36722 24.5545 2.90338 24.3825 3.4615 24.4084ZM0.855253 23.4562C0.866762 23.2153 1.07446 23.0293 1.31934 23.0403C1.56423 23.0514 1.75333 23.2555 1.74236 23.4968C1.73386 23.6756 1.61682 23.8241 1.45692 23.8843L1.47569 23.4846C1.48047 23.3882 1.40487 23.3066 1.30695 23.3023C1.20939 23.2976 1.1267 23.372 1.12174 23.4684L1.10297 23.8679C0.949629 23.7936 0.847108 23.6352 0.855253 23.4562ZM0.757158 25.546C0.765657 25.3669 0.882521 25.2186 1.04206 25.1585L1.00452 25.9577C0.85118 25.8832 0.748659 25.725 0.757158 25.546ZM0.657469 27.6573C0.665968 27.4782 0.782832 27.3298 0.942546 27.2697L0.905008 28.0689C0.751492 27.9945 0.64897 27.836 0.657469 27.6573Z" fill="#BA6619"/>
</svg>
