<svg width="20" height="20" viewBox="0 0 20 20" fill="none" xmlns="http://www.w3.org/2000/svg">
<path fill-rule="evenodd" clip-rule="evenodd" d="M5.29847 4.60049C4.55738 4.70016 4.153 4.88407 3.86245 5.17487C3.57165 5.46542 3.38732 5.87021 3.28765 6.6113C3.18533 7.37211 3.18387 8.37859 3.18387 9.81245V11.3128C3.18387 12.7467 3.18533 13.7532 3.28765 14.514C3.38732 15.2551 3.57124 15.6594 3.86204 15.95C4.15258 16.2408 4.55738 16.4251 5.29847 16.5248C6.05927 16.6271 7.06576 16.6286 8.49962 16.6286H11.5004C12.9342 16.6286 13.9407 16.6271 14.7015 16.5248C15.4426 16.4251 15.847 16.2412 16.1375 15.9504C16.4283 15.6599 16.6126 15.2551 16.7123 14.514C16.8146 13.7532 16.8161 12.7467 16.8161 11.3128V9.81245C16.8161 8.37859 16.8146 7.37211 16.7123 6.6113C16.6126 5.87021 16.4287 5.46583 16.1379 5.17528C15.8474 4.88449 15.4426 4.70016 14.7015 4.60049C13.9407 4.49816 12.9342 4.4967 11.5004 4.4967H8.49962C7.06576 4.4967 6.05927 4.49816 5.29847 4.60049ZM8.44896 3.12527H11.551C12.9225 3.12526 14.0214 3.12524 14.8843 3.2413C15.7775 3.36143 16.5198 3.61712 17.1077 4.20554C17.6958 4.79339 17.9514 5.53552 18.0715 6.4285C18.1876 7.29136 18.1875 8.39033 18.1875 9.76178V11.3635C18.1875 12.7349 18.1876 13.8339 18.0715 14.6968C17.9514 15.5898 17.6958 16.3319 17.1077 16.9197C16.5198 17.5082 15.7775 17.7638 14.8843 17.884C14.0214 18 12.9225 18 11.551 18H8.44897C7.07751 18 5.97854 18 5.11566 17.884C4.22248 17.7638 3.4802 17.5082 2.89229 16.9197C2.30417 16.3319 2.04856 15.5898 1.92846 14.6968C1.81241 13.8339 1.81242 12.7349 1.81244 11.3635V9.76179C1.81242 8.39034 1.81241 7.29137 1.92846 6.4285C2.04858 5.53543 2.30422 4.79323 2.89247 4.20535C3.48036 3.61707 4.22257 3.36141 5.11566 3.2413C5.97853 3.12524 7.07751 3.12526 8.44896 3.12527Z" fill="black"/>
<path fill-rule="evenodd" clip-rule="evenodd" d="M6.24907 2C6.62778 2 6.93478 2.307 6.93478 2.68571V3.81099C6.93478 4.1897 6.62778 4.4967 6.24907 4.4967C5.87036 4.4967 5.56336 4.1897 5.56336 3.81099V2.68571C5.56336 2.307 5.87036 2 6.24907 2ZM13.7509 2C14.1296 2 14.4366 2.307 14.4366 2.68571V3.81099C14.4366 4.1897 14.1296 4.4967 13.7509 4.4967C13.3722 4.4967 13.0652 4.1897 13.0652 3.81099V2.68571C13.0652 2.307 13.3722 2 13.7509 2ZM2.18753 7.5619C2.18753 7.1832 2.49454 6.87619 2.87325 6.87619H17.1267C17.5054 6.87619 17.8124 7.1832 17.8124 7.5619C17.8124 7.94061 17.5054 8.24762 17.1267 8.24762H2.87325C2.49454 8.24762 2.18753 7.94061 2.18753 7.5619Z" fill="black"/>
<path d="M14.5011 13.5634C14.5011 13.7623 14.422 13.9531 14.2814 14.0938C14.1407 14.2345 13.9499 14.3136 13.7509 14.3136C13.5519 14.3136 13.3611 14.2345 13.2204 14.0938C13.0798 13.9531 13.0007 13.7623 13.0007 13.5634C13.0007 13.3644 13.0798 13.1736 13.2204 13.0329C13.3611 12.8922 13.5519 12.8132 13.7509 12.8132C13.9499 12.8132 14.1407 12.8922 14.2814 13.0329C14.422 13.1736 14.5011 13.3644 14.5011 13.5634ZM14.5011 10.5626C14.5011 10.7616 14.422 10.9524 14.2814 11.0931C14.1407 11.2338 13.9499 11.3128 13.7509 11.3128C13.5519 11.3128 13.3611 11.2338 13.2204 11.0931C13.0798 10.9524 13.0007 10.7616 13.0007 10.5626C13.0007 10.3637 13.0798 10.1729 13.2204 10.0322C13.3611 9.89149 13.5519 9.81245 13.7509 9.81245C13.9499 9.81245 14.1407 9.89149 14.2814 10.0322C14.422 10.1729 14.5011 10.3637 14.5011 10.5626ZM10.7502 13.5634C10.7502 13.7623 10.6711 13.9531 10.5304 14.0938C10.3898 14.2345 10.1989 14.3136 9.99999 14.3136C9.80102 14.3136 9.61021 14.2345 9.46953 14.0938C9.32884 13.9531 9.2498 13.7623 9.2498 13.5634C9.2498 13.3644 9.32884 13.1736 9.46953 13.0329C9.61021 12.8922 9.80102 12.8132 9.99999 12.8132C10.1989 12.8132 10.3898 12.8922 10.5304 13.0329C10.6711 13.1736 10.7502 13.3644 10.7502 13.5634ZM10.7502 10.5626C10.7502 10.7616 10.6711 10.9524 10.5304 11.0931C10.3898 11.2338 10.1989 11.3128 9.99999 11.3128C9.80102 11.3128 9.61021 11.2338 9.46953 11.0931C9.32884 10.9524 9.2498 10.7616 9.2498 10.5626C9.2498 10.3637 9.32884 10.1729 9.46953 10.0322C9.61021 9.89149 9.80102 9.81245 9.99999 9.81245C10.1989 9.81245 10.3898 9.89149 10.5304 10.0322C10.6711 10.1729 10.7502 10.3637 10.7502 10.5626ZM6.99925 13.5634C6.99925 13.7623 6.92022 13.9531 6.77953 14.0938C6.63884 14.2345 6.44803 14.3136 6.24907 14.3136C6.05011 14.3136 5.8593 14.2345 5.71861 14.0938C5.57792 13.9531 5.49889 13.7623 5.49889 13.5634C5.49889 13.3644 5.57792 13.1736 5.71861 13.0329C5.8593 12.8922 6.05011 12.8132 6.24907 12.8132C6.44803 12.8132 6.63884 12.8922 6.77953 13.0329C6.92022 13.1736 6.99925 13.3644 6.99925 13.5634ZM6.99925 10.5626C6.99925 10.7616 6.92022 10.9524 6.77953 11.0931C6.63884 11.2338 6.44803 11.3128 6.24907 11.3128C6.05011 11.3128 5.8593 11.2338 5.71861 11.0931C5.57792 10.9524 5.49889 10.7616 5.49889 10.5626C5.49889 10.3637 5.57792 10.1729 5.71861 10.0322C5.8593 9.89149 6.05011 9.81245 6.24907 9.81245C6.44803 9.81245 6.63884 9.89149 6.77953 10.0322C6.92022 10.1729 6.99925 10.3637 6.99925 10.5626Z" fill="black"/>
</svg>
