<svg width="20" height="20" viewBox="0 0 20 20" fill="none" xmlns="http://www.w3.org/2000/svg">
<path fill-rule="evenodd" clip-rule="evenodd" d="M7.06273 3.85159C7.78261 3.55341 8.55418 3.39993 9.33337 3.39993C10.1126 3.39993 10.8841 3.55341 11.604 3.85159C12.3239 4.14978 12.978 4.58683 13.529 5.13781C14.0799 5.68878 14.517 6.34288 14.8152 7.06276C15.1134 7.78264 15.2668 8.55421 15.2668 9.3334C15.2668 10.1126 15.1134 10.8842 14.8152 11.604C14.5938 12.1385 14.2959 12.6366 13.9317 13.0832L16.4243 15.5758C16.6586 15.8101 16.6586 16.19 16.4243 16.4243C16.19 16.6586 15.8101 16.6586 15.5758 16.4243L13.0832 13.9318C12.0291 14.7914 10.7057 15.2669 9.33337 15.2669C7.75972 15.2669 6.25052 14.6417 5.13778 13.529C4.02503 12.4163 3.3999 10.9071 3.3999 9.3334C3.3999 7.75975 4.02503 6.25055 5.13778 5.13781C5.68875 4.58683 6.34285 4.14978 7.06273 3.85159ZM9.33337 4.59993C8.71176 4.59993 8.09624 4.72237 7.52195 4.96025C6.94766 5.19813 6.42585 5.54679 5.9863 5.98633C5.09861 6.87403 4.5999 8.07801 4.5999 9.3334C4.5999 10.5888 5.09861 11.7928 5.9863 12.6805C6.874 13.5682 8.07798 14.0669 9.33337 14.0669C10.5888 14.0669 11.7927 13.5682 12.6804 12.6805C13.12 12.2409 13.4687 11.7191 13.7065 11.1448C13.9444 10.5705 14.0668 9.95501 14.0668 9.3334C14.0668 8.71179 13.9444 8.09627 13.7065 7.52198C13.4687 6.94769 13.12 6.42588 12.6804 5.98633C12.2409 5.54679 11.7191 5.19813 11.1448 4.96025C10.5705 4.72237 9.95498 4.59993 9.33337 4.59993Z" fill="black"/>
</svg>
