<svg width="24" height="30" viewBox="0 0 24 30" fill="none" xmlns="http://www.w3.org/2000/svg">
<g clip-path="url(#clip0_52_11)">
<path d="M23.4132 4.68955C24.3948 3.38413 24.1155 1.5425 22.7893 0.57614C21.4632 -0.390215 19.5924 -0.11535 18.6108 1.19007C17.6292 2.49549 17.9085 4.33713 19.2346 5.30348C20.5608 6.26984 22.4316 5.99497 23.4132 4.68955Z" fill="#BA6619"/>
<path d="M17.2888 8.47712C17.2886 8.37842 17.2921 8.29959 17.2955 8.24925C17.2969 8.22429 17.2985 8.20637 17.2994 8.19644C17.2994 8.19487 17.2996 8.19356 17.2997 8.19252C17.2998 8.19121 17.3 8.18977 17.3001 8.18846C17.3001 8.18833 17.3002 8.1882 17.3002 8.18807C17.3625 7.61586 16.9434 7.10118 16.3619 7.03725C15.7786 6.97319 15.2533 7.38643 15.1882 7.9606H15.1879C15.1846 7.99106 15.1642 8.18219 15.1638 8.47725C15.1697 9.0577 15.2259 10.0479 15.7627 11.0336C16.0324 11.5225 16.4442 12.0097 17.0273 12.3587C17.6057 12.7082 18.3321 12.9033 19.1549 12.9033C19.1589 12.9033 19.163 12.9033 19.167 12.9033C19.9343 12.9025 20.7905 12.7456 21.7729 12.4141C22.328 12.2265 22.6234 11.6318 22.4331 11.0855C22.2425 10.5391 21.6384 10.2483 21.0834 10.4357C20.2671 10.7121 19.6335 10.8118 19.167 10.8113C18.6593 10.8091 18.3545 10.7035 18.1342 10.5733C17.8119 10.3799 17.6033 10.0654 17.4619 9.6486C17.3239 9.23993 17.2871 8.77061 17.2888 8.47712Z" fill="#BA6619"/>
<path d="M0.000797364 22.2743C-0.0183258 22.6831 0.302386 23.0298 0.717651 23.0488C1.13292 23.0679 1.48484 22.7519 1.50436 22.3431C1.52149 21.979 1.26837 21.6647 0.919242 21.587L0.923624 21.4919C1.00251 21.4817 1.0778 21.46 1.14739 21.4276C1.48178 21.7393 1.9256 21.9399 2.42161 21.9629L5.38105 22.1001L5.39659 21.7756L9.78603 21.9609C10.3945 21.9863 10.9681 21.682 11.2812 21.1678L13.2619 17.9126L15.7379 20.6773L14.9858 23.6387L14.6636 23.5594L13.9449 26.3891C13.8178 26.8897 13.9006 27.3923 14.1355 27.8111C14.101 27.8555 14.0719 27.9044 14.0481 27.9568L13.9379 27.9298C13.9619 27.5785 13.7287 27.25 13.3695 27.1617C12.9665 27.0628 12.558 27.3044 12.4576 27.7014C12.3569 28.0984 12.6023 28.5003 13.0056 28.5992C13.365 28.6874 13.7277 28.505 13.8737 28.1835L13.9838 28.2106C13.9594 28.562 14.1927 28.8905 14.552 28.9786C14.8383 29.049 15.1264 28.9471 15.306 28.7403C15.3356 28.7489 15.3642 28.7594 15.3944 28.7668C15.4502 28.7806 15.5059 28.7909 15.5616 28.7998C15.6205 29.0667 15.8268 29.2916 16.1142 29.3621C16.4734 29.4502 16.8364 29.2678 16.9823 28.9463L17.0763 28.9693C17.0519 29.3207 17.2852 29.6493 17.6445 29.7375C18.0478 29.8365 18.456 29.595 18.5567 29.198C18.6573 28.801 18.4116 28.3991 18.0083 28.3C17.6494 28.2119 17.2866 28.3943 17.1405 28.7157L17.0465 28.6926C17.0519 28.6147 17.045 28.5379 17.0264 28.4646C17.4026 28.2033 17.6899 27.8142 17.8102 27.3399L18.5289 24.5102L18.2066 24.431L19.1701 20.6368C19.3021 20.1173 19.1646 19.5615 18.805 19.1601L14.7647 14.6482C15.0785 13.7175 15.563 12.7983 16.0936 11.9355C15.8772 11.7037 15.6866 11.443 15.5292 11.158C14.9782 10.1455 14.9052 9.14451 14.8982 8.47961C14.8988 8.18494 14.9179 7.98623 14.9239 7.93224C14.9994 7.26865 15.566 6.76887 16.2426 6.76887C16.2919 6.76887 16.3417 6.77161 16.3914 6.7771C17.1161 6.85659 17.6422 7.50174 17.5645 8.2154L17.5609 8.26325C17.5576 8.31254 17.5542 8.38496 17.5544 8.47595C17.5536 8.61805 17.5628 9.10464 17.7085 9.54808C17.8089 9.40623 17.9073 9.267 18 9.13405C18.8746 8.08899 19.0452 6.46478 18.1172 5.76642C17.9826 5.6651 17.8301 5.57712 17.6644 5.50443C17.6635 5.50391 17.6625 5.50326 17.6616 5.50274L17.6613 5.50247C17.579 5.46744 15.1616 4.18118 12.0455 4.17072C10.6415 4.16993 9.08205 4.44525 7.59084 5.26284C7.0781 5.54392 6.89391 6.18071 7.1793 6.68559C7.46468 7.19008 8.11169 7.3714 8.62456 7.09072C9.73955 6.47995 10.9162 6.2632 12.0455 6.26267C12.7524 6.26189 13.436 6.34961 14.0512 6.47642C14.0512 6.47642 14.0508 6.47668 14.0506 6.47694C12.1569 8.54406 11.286 10.0437 10.4293 12.8432C10.1624 14.0375 10.4572 14.8012 10.9679 15.323L8.94089 18.6538L5.55263 18.511L5.5683 18.1823L2.60859 18.0453C2.08522 18.021 1.60064 18.1997 1.22973 18.5088C1.1786 18.4842 1.12415 18.4656 1.06705 18.4529L1.07236 18.3413C1.4272 18.2957 1.70847 18.006 1.7256 17.6418C1.74499 17.2331 1.42428 16.8864 1.00888 16.8676C0.593616 16.8485 0.241696 17.1645 0.22244 17.573C0.205044 17.9371 0.458028 18.2512 0.806893 18.329L0.801581 18.4407C0.447005 18.4864 0.165602 18.7761 0.148471 19.1402C0.134925 19.4303 0.292957 19.6884 0.534122 19.821C0.5312 19.8514 0.526419 19.8812 0.525091 19.9119C0.522435 19.9684 0.522967 20.0241 0.525091 20.0796C0.27078 20.1891 0.0875157 20.4325 0.0738373 20.7236C0.0567061 21.0877 0.309557 21.402 0.658423 21.4798L0.653907 21.5749C0.299464 21.6208 0.0181942 21.9105 0.000797364 22.2743ZM14.8142 27.9422C14.9468 27.9746 15.0403 28.0812 15.0616 28.2057L14.4701 28.0606C14.5484 27.9605 14.6817 27.9096 14.8142 27.9422ZM16.0325 28.4441C16.1108 28.3439 16.2442 28.2931 16.3768 28.3256C16.509 28.3582 16.6028 28.4647 16.624 28.5893L16.0325 28.4441ZM13.1068 28.1987C12.9286 28.1549 12.8202 27.9771 12.8646 27.8015C12.909 27.6258 13.0894 27.5189 13.2679 27.5628C13.4004 27.5952 13.4939 27.7018 13.5153 27.8262L13.2194 27.7537C13.1483 27.7364 13.0763 27.7789 13.0584 27.849C13.0406 27.919 13.084 27.99 13.1553 28.0074L13.4512 28.08C13.373 28.1803 13.2394 28.2311 13.1068 28.1987ZM14.6534 28.5781C14.5209 28.5455 14.4273 28.439 14.4059 28.3144L14.9976 28.4595C14.9193 28.5598 14.7858 28.6106 14.6534 28.5781ZM16.2157 28.9615C16.0831 28.9289 15.9895 28.8225 15.9683 28.6978L16.5599 28.8431C16.4817 28.9432 16.3482 28.9941 16.2157 28.9615ZM17.9067 28.7012C18.0852 28.7449 18.1936 28.9228 18.1492 29.0984C18.1049 29.2739 17.9241 29.3809 17.7459 29.3372C17.6134 29.3047 17.5198 29.1981 17.4985 29.0735L17.7941 29.1461C17.8049 29.1487 17.8155 29.1499 17.8261 29.1499C17.8858 29.1499 17.9399 29.1103 17.9552 29.0508C17.973 28.9807 17.9296 28.9097 17.8584 28.8923L17.5628 28.8198C17.641 28.7194 17.7743 28.6687 17.9067 28.7012ZM17.9604 25.6703L16.9342 25.411L16.8268 25.8225L17.8556 26.0824L17.7211 26.6121L16.7183 26.3588L16.6109 26.7703L17.6162 27.0243L17.5522 27.2769C17.4531 27.6669 17.2226 27.9954 16.9146 28.2234C16.8142 28.08 16.6629 27.9703 16.4778 27.9248C16.1186 27.8367 15.756 28.0191 15.6098 28.3404L15.4838 28.3094C15.5078 27.9581 15.2746 27.6296 14.9154 27.5415C14.7105 27.4912 14.5043 27.5292 14.3377 27.6307C14.15 27.2662 14.1006 26.8529 14.2022 26.4528L14.8566 23.8765L18.2065 24.701L17.9604 25.6703ZM1.08498 22.324C1.07661 22.5047 0.920835 22.6444 0.736907 22.6361C0.553511 22.6278 0.41168 22.4744 0.42018 22.2938C0.426421 22.1596 0.514069 22.0483 0.633855 22.0031L0.619778 22.3027C0.616192 22.375 0.672898 22.4362 0.745938 22.4393C0.748195 22.4395 0.75032 22.4395 0.752578 22.4395C0.823094 22.4395 0.881792 22.3848 0.884846 22.3147L0.898923 22.0148C1.01433 22.0707 1.09135 22.1896 1.08498 22.324ZM1.047 18.881C1.16213 18.9367 1.23916 19.0555 1.23278 19.1897C1.22641 19.3241 1.13863 19.4355 1.01858 19.4806L1.047 18.881ZM0.943942 21.0642L0.972229 20.4644C1.08763 20.5201 1.16452 20.639 1.15815 20.7734C1.15177 20.9076 1.06399 21.0191 0.943942 21.0642ZM2.59611 18.3064L5.29075 18.4312L5.12833 21.8266L4.11414 21.7798L4.17098 20.7384L3.73965 20.7158L3.68321 21.7599L3.12903 21.7343L3.18428 20.7166L2.75321 20.6938L2.6981 21.7143L2.43396 21.7021C2.02626 21.6831 1.65363 21.525 1.36585 21.2727C1.48895 21.1476 1.56837 20.98 1.57727 20.7924C1.5944 20.4283 1.34128 20.1141 0.992414 20.0362L0.998523 19.9085C1.35323 19.863 1.6349 19.5733 1.65203 19.209C1.66173 19.0012 1.58324 18.8097 1.44964 18.6689C1.7754 18.416 2.17752 18.2869 2.59611 18.3064ZM0.641424 17.5922C0.650056 17.4115 0.805831 17.2721 0.989493 17.2803C1.17316 17.2887 1.31499 17.4417 1.30675 17.6227C1.30038 17.7568 1.2126 17.8682 1.09268 17.9133L1.10676 17.6135C1.11034 17.5412 1.05364 17.48 0.980197 17.4768C0.907024 17.4733 0.845006 17.5291 0.841288 17.6014L0.827211 17.901C0.712207 17.8453 0.635315 17.7265 0.641424 17.5922ZM0.567853 19.1596C0.574227 19.0253 0.661875 18.914 0.781528 18.8689L0.753375 19.4683C0.63837 19.4125 0.561479 19.2938 0.567853 19.1596ZM0.493087 20.7431C0.499461 20.6087 0.587109 20.4974 0.706895 20.4523L0.678741 21.0518C0.563603 20.9959 0.486712 20.8771 0.493087 20.7431Z" fill="#BA6619"/>
</g>
<defs>
<clipPath id="clip0_52_11">
<rect width="24" height="29.76" fill="white"/>
</clipPath>
</defs>
</svg>
