<svg width="74" height="68" viewBox="0 0 74 68" fill="none" xmlns="http://www.w3.org/2000/svg">
<rect x="0.25" y="0.25" width="73.5" height="67.5" rx="15.75" stroke="#362F08" stroke-width="0.5"/>
<g clip-path="url(#clip0_45_1991)">
<path d="M48.4132 23.6896C49.3948 22.3841 49.1155 20.5425 47.7893 19.5761C46.4632 18.6098 44.5924 18.8846 43.6108 20.1901C42.6292 21.4955 42.9085 23.3371 44.2346 24.3035C45.5608 25.2698 47.4316 24.995 48.4132 23.6896Z" fill="#BA6619"/>
<path d="M42.2888 27.4771C42.2886 27.3784 42.2921 27.2996 42.2955 27.2493C42.2969 27.2243 42.2985 27.2064 42.2994 27.1964C42.2994 27.1949 42.2996 27.1936 42.2997 27.1925C42.2998 27.1912 42.3 27.1898 42.3001 27.1885C42.3001 27.1883 42.3002 27.1882 42.3002 27.1881C42.3625 26.6159 41.9434 26.1012 41.3619 26.0372C40.7786 25.9732 40.2533 26.3864 40.1882 26.9606H40.1879C40.1846 26.9911 40.1642 27.1822 40.1638 27.4772C40.1697 28.0577 40.2259 29.0479 40.7627 30.0336C41.0324 30.5225 41.4442 31.0097 42.0273 31.3587C42.6057 31.7082 43.3321 31.9033 44.1549 31.9033C44.1589 31.9033 44.163 31.9033 44.167 31.9033C44.9343 31.9025 45.7905 31.7456 46.7729 31.4141C47.328 31.2265 47.6234 30.6318 47.4331 30.0855C47.2425 29.5391 46.6384 29.2483 46.0834 29.4357C45.2671 29.7121 44.6335 29.8118 44.167 29.8113C43.6593 29.8091 43.3545 29.7035 43.1342 29.5733C42.8119 29.3799 42.6033 29.0654 42.4619 28.6486C42.3239 28.2399 42.2871 27.7706 42.2888 27.4771Z" fill="#BA6619"/>
<path d="M25.0008 41.2743C24.9817 41.6831 25.3024 42.0298 25.7177 42.0488C26.1329 42.0679 26.4848 41.7519 26.5044 41.3431C26.5215 40.979 26.2684 40.6647 25.9192 40.587L25.9236 40.4919C26.0025 40.4817 26.0778 40.46 26.1474 40.4276C26.4818 40.7393 26.9256 40.9399 27.4216 40.9629L30.3811 41.1001L30.3966 40.7756L34.786 40.9609C35.3945 40.9863 35.9681 40.682 36.2812 40.1678L38.2619 36.9126L40.7379 39.6773L39.9858 42.6387L39.6636 42.5594L38.9449 45.3891C38.8178 45.8897 38.9006 46.3923 39.1355 46.8111C39.101 46.8555 39.0719 46.9044 39.0481 46.9568L38.9379 46.9298C38.9619 46.5785 38.7287 46.25 38.3695 46.1617C37.9665 46.0628 37.558 46.3044 37.4576 46.7014C37.3569 47.0984 37.6023 47.5003 38.0056 47.5992C38.365 47.6874 38.7277 47.505 38.8737 47.1835L38.9838 47.2106C38.9594 47.562 39.1927 47.8905 39.552 47.9786C39.8383 48.049 40.1264 47.9471 40.306 47.7403C40.3356 47.7489 40.3642 47.7594 40.3944 47.7668C40.4502 47.7806 40.5059 47.7909 40.5616 47.7998C40.6205 48.0667 40.8268 48.2916 41.1142 48.3621C41.4734 48.4502 41.8364 48.2678 41.9823 47.9463L42.0763 47.9693C42.0519 48.3207 42.2852 48.6493 42.6445 48.7375C43.0478 48.8365 43.456 48.595 43.5567 48.198C43.6573 47.801 43.4116 47.3991 43.0083 47.3C42.6494 47.2119 42.2866 47.3943 42.1405 47.7157L42.0465 47.6926C42.0519 47.6147 42.045 47.5379 42.0264 47.4646C42.4026 47.2033 42.6899 46.8142 42.8102 46.3399L43.5289 43.5102L43.2066 43.431L44.1701 39.6368C44.3021 39.1173 44.1646 38.5615 43.805 38.1601L39.7647 33.6482C40.0785 32.7175 40.563 31.7983 41.0936 30.9355C40.8772 30.7037 40.6866 30.443 40.5292 30.158C39.9782 29.1455 39.9052 28.1445 39.8982 27.4796C39.8988 27.1849 39.9179 26.9862 39.9239 26.9322C39.9994 26.2686 40.566 25.7689 41.2426 25.7689C41.2919 25.7689 41.3417 25.7716 41.3914 25.7771C42.1161 25.8566 42.6422 26.5017 42.5645 27.2154L42.5609 27.2633C42.5576 27.3125 42.5542 27.385 42.5544 27.476C42.5536 27.6181 42.5628 28.1046 42.7085 28.5481C42.8089 28.4062 42.9073 28.267 43 28.1341C43.8746 27.089 44.0452 25.4648 43.1172 24.7664C42.9826 24.6651 42.8301 24.5771 42.6644 24.5044C42.6635 24.5039 42.6625 24.5033 42.6616 24.5027L42.6613 24.5025C42.579 24.4674 40.1616 23.1812 37.0455 23.1707C35.6415 23.1699 34.0821 23.4453 32.5908 24.2628C32.0781 24.5439 31.8939 25.1807 32.1793 25.6856C32.4647 26.1901 33.1117 26.3714 33.6246 26.0907C34.7395 25.4799 35.9162 25.2632 37.0455 25.2627C37.7524 25.2619 38.436 25.3496 39.0512 25.4764C39.0512 25.4764 39.0508 25.4767 39.0506 25.4769C37.1569 27.5441 36.286 29.0437 35.4293 31.8432C35.1624 33.0375 35.4572 33.8012 35.9679 34.323L33.9409 37.6538L30.5526 37.511L30.5683 37.1823L27.6086 37.0453C27.0852 37.021 26.6006 37.1997 26.2297 37.5088C26.1786 37.4842 26.1242 37.4656 26.067 37.4529L26.0724 37.3413C26.4272 37.2957 26.7085 37.006 26.7256 36.6418C26.745 36.2331 26.4243 35.8864 26.0089 35.8676C25.5936 35.8485 25.2417 36.1645 25.2224 36.573C25.205 36.9371 25.458 37.2512 25.8069 37.329L25.8016 37.4407C25.447 37.4864 25.1656 37.7761 25.1485 38.1402C25.1349 38.4303 25.293 38.6884 25.5341 38.821C25.5312 38.8514 25.5264 38.8812 25.5251 38.9119C25.5224 38.9684 25.523 39.0241 25.5251 39.0796C25.2708 39.1891 25.0875 39.4325 25.0738 39.7236C25.0567 40.0877 25.3096 40.402 25.6584 40.4798L25.6539 40.5749C25.2995 40.6208 25.0182 40.9105 25.0008 41.2743ZM39.8142 46.9422C39.9468 46.9746 40.0403 47.0812 40.0616 47.2057L39.4701 47.0606C39.5484 46.9605 39.6817 46.9096 39.8142 46.9422ZM41.0325 47.4441C41.1108 47.3439 41.2442 47.2931 41.3768 47.3256C41.509 47.3582 41.6028 47.4647 41.624 47.5893L41.0325 47.4441ZM38.1068 47.1987C37.9286 47.1549 37.8202 46.9771 37.8646 46.8015C37.909 46.6258 38.0894 46.5189 38.2679 46.5628C38.4004 46.5952 38.4939 46.7018 38.5153 46.8262L38.2194 46.7537C38.1483 46.7364 38.0763 46.7789 38.0584 46.849C38.0406 46.919 38.084 46.99 38.1553 47.0074L38.4512 47.08C38.373 47.1803 38.2394 47.2311 38.1068 47.1987ZM39.6534 47.5781C39.5209 47.5455 39.4273 47.439 39.4059 47.3144L39.9976 47.4595C39.9193 47.5598 39.7858 47.6106 39.6534 47.5781ZM41.2157 47.9615C41.0831 47.9289 40.9895 47.8225 40.9683 47.6978L41.5599 47.8431C41.4817 47.9432 41.3482 47.9941 41.2157 47.9615ZM42.9067 47.7012C43.0852 47.7449 43.1936 47.9228 43.1492 48.0984C43.1049 48.2739 42.9241 48.3809 42.7459 48.3372C42.6134 48.3047 42.5198 48.1981 42.4985 48.0735L42.7941 48.1461C42.8049 48.1487 42.8155 48.1499 42.8261 48.1499C42.8858 48.1499 42.9399 48.1103 42.9552 48.0508C42.973 47.9807 42.9296 47.9097 42.8584 47.8923L42.5628 47.8198C42.641 47.7194 42.7743 47.6687 42.9067 47.7012ZM42.9604 44.6703L41.9342 44.411L41.8268 44.8225L42.8556 45.0824L42.7211 45.6121L41.7183 45.3588L41.6109 45.7703L42.6162 46.0243L42.5522 46.2769C42.4531 46.6669 42.2226 46.9954 41.9146 47.2234C41.8142 47.08 41.6629 46.9703 41.4778 46.9248C41.1186 46.8367 40.756 47.0191 40.6098 47.3404L40.4838 47.3094C40.5078 46.9581 40.2746 46.6296 39.9154 46.5415C39.7105 46.4912 39.5043 46.5292 39.3377 46.6307C39.15 46.2662 39.1006 45.8529 39.2022 45.4528L39.8566 42.8765L43.2065 43.701L42.9604 44.6703ZM26.085 41.324C26.0766 41.5047 25.9208 41.6444 25.7369 41.6361C25.5535 41.6278 25.4117 41.4744 25.4202 41.2938C25.4264 41.1596 25.5141 41.0483 25.6339 41.0031L25.6198 41.3027C25.6162 41.375 25.6729 41.4362 25.7459 41.4393C25.7482 41.4395 25.7503 41.4395 25.7526 41.4395C25.8231 41.4395 25.8818 41.3848 25.8848 41.3147L25.8989 41.0148C26.0143 41.0707 26.0914 41.1896 26.085 41.324ZM26.047 37.881C26.1621 37.9367 26.2392 38.0555 26.2328 38.1897C26.2264 38.3241 26.1386 38.4355 26.0186 38.4806L26.047 37.881ZM25.9439 40.0642L25.9722 39.4644C26.0876 39.5201 26.1645 39.639 26.1581 39.7734C26.1518 39.9076 26.064 40.0191 25.9439 40.0642ZM27.5961 37.3064L30.2907 37.4312L30.1283 40.8266L29.1141 40.7798L29.171 39.7384L28.7396 39.7158L28.6832 40.7599L28.129 40.7343L28.1843 39.7166L27.7532 39.6938L27.6981 40.7143L27.434 40.7021C27.0263 40.6831 26.6536 40.525 26.3658 40.2727C26.489 40.1476 26.5684 39.98 26.5773 39.7924C26.5944 39.4283 26.3413 39.1141 25.9924 39.0362L25.9985 38.9085C26.3532 38.863 26.6349 38.5733 26.652 38.209C26.6617 38.0012 26.5832 37.8097 26.4496 37.6689C26.7754 37.416 27.1775 37.2869 27.5961 37.3064ZM25.6414 36.5922C25.6501 36.4115 25.8058 36.2721 25.9895 36.2803C26.1732 36.2887 26.315 36.4417 26.3068 36.6227C26.3004 36.7568 26.2126 36.8682 26.0927 36.9133L26.1068 36.6135C26.1103 36.5412 26.0536 36.48 25.9802 36.4768C25.907 36.4733 25.845 36.5291 25.8413 36.6014L25.8272 36.901C25.7122 36.8453 25.6353 36.7265 25.6414 36.5922ZM25.5679 38.1596C25.5742 38.0253 25.6619 37.914 25.7815 37.8689L25.7534 38.4683C25.6384 38.4125 25.5615 38.2938 25.5679 38.1596ZM25.4931 39.7431C25.4995 39.6087 25.5871 39.4974 25.7069 39.4523L25.6787 40.0518C25.5636 39.9959 25.4867 39.8771 25.4931 39.7431Z" fill="#BA6619"/>
</g>
<defs>
<clipPath id="clip0_45_1991">
<rect width="24" height="29.76" fill="white" transform="translate(25 19)"/>
</clipPath>
</defs>
</svg>
