<svg width="93" height="40" viewBox="0 0 93 40" fill="none" xmlns="http://www.w3.org/2000/svg">
<path d="M63.259 39.5309C65.0006 34.1221 66.255 33.6971 80.5855 33.0758C79.5693 32.1217 78.9284 31.383 78.1479 30.804C70.8815 25.4287 63.0143 21.1059 54.6486 17.7187C40.9457 12.1641 26.9108 7.63401 12.4162 4.61814C9.37733 3.99028 6.27033 2.79571 3.04025 4.39567C2.4191 4.69795 1.12615 3.65223 0.145466 3.22696C0.186505 2.79324 0.226897 2.34952 0.267936 1.91579C2.01319 1.48793 3.77088 0.648311 5.48977 0.723342C9.31934 0.887191 13.2069 1.16742 16.9303 1.98986C30.7358 5.04197 44.3958 8.76534 57.3198 14.5126C65.0476 17.9526 72.2983 22.4972 79.7118 26.6299C81.6593 27.7219 83.4274 29.1266 86.085 30.9427C85.419 29.2334 85.2416 28.2331 84.6998 27.4777C81.0422 22.4113 77.2889 17.4115 73.6027 12.3671C72.7194 11.1535 70.7279 9.85397 72.3695 8.33059C74.0391 6.77526 75.2128 8.88136 76.2244 9.91593C82.779 16.632 87.9072 24.3458 92.147 32.7106C94.1225 36.607 92.5196 38.5588 88.4133 38.3032C84.9009 38.088 81.37 37.7438 77.8934 37.1654C72.9873 36.3421 68.3111 36.7062 63.2477 39.5116L63.259 39.5309Z" fill="#BA6619"/>
</svg>
