<svg width="44" height="22" viewBox="0 0 44 22" fill="none" xmlns="http://www.w3.org/2000/svg">
<path d="M22.515 21C23.3683 18.6 26.565 16.1267 32.105 13.58C28.555 13.12 26.045 12.75 23.525 12.49C20.815 12.21 18.105 11.95 15.385 11.82C11.705 11.64 8.01497 11.63 4.33497 11.44C2.87497 11.36 0.644977 12 0.684978 9.56C0.724979 7.4 2.87498 7.4 4.37498 7.43C9.81498 7.52 15.245 7.72 20.675 8.07C23.695 8.27 26.685 8.84 30.215 9.32C27.135 5.5 22.085 4.67 19.545 -1.04138e-06C21.145 0.089999 22.265 -0.120001 23.155 0.249999C29.705 2.93 35.865 6.32 41.275 10.95C41.755 11.36 42.255 11.8 42.615 12.32C43.955 14.25 43.505 16.3 41.295 16.94C35.465 18.63 29.565 20.07 23.685 21.58C23.455 21.64 23.135 21.32 22.505 21L22.515 21Z" fill="#BA6619"/>
</svg>
