<svg width="26" height="32" viewBox="0 0 26 32" fill="none" xmlns="http://www.w3.org/2000/svg">
<g clip-path="url(#clip0_169_20)">
<path d="M25.3689 5.04253C26.4244 3.63885 26.1241 1.6586 24.6981 0.619506C23.2722 -0.419586 21.2606 -0.124032 20.2051 1.27965C19.1496 2.68332 19.4499 4.66358 20.8759 5.70267C22.3018 6.74176 24.3134 6.44621 25.3689 5.04253Z" fill="#DED056"/>
<path d="M18.7838 9.11516C18.7835 9.00903 18.7874 8.92427 18.7909 8.87015C18.7925 8.8433 18.7942 8.82404 18.7952 8.81336C18.7952 8.81167 18.7954 8.81027 18.7955 8.80914C18.7956 8.80773 18.7958 8.80619 18.7959 8.80478C18.7959 8.80464 18.7961 8.8045 18.7961 8.80436C18.863 8.18908 18.4124 7.63565 17.7871 7.56692C17.1599 7.49804 16.595 7.94238 16.5251 8.55977H16.5248C16.5212 8.59252 16.4992 8.79804 16.4988 9.1153C16.5052 9.73944 16.5656 10.8041 17.1428 11.864C17.4328 12.3898 17.8756 12.9137 18.5026 13.2889C19.1245 13.6647 19.9056 13.8745 20.7904 13.8745C20.7946 13.8745 20.7991 13.8745 20.8034 13.8745C21.6284 13.8736 22.549 13.7049 23.6054 13.3485C24.2023 13.1467 24.5199 12.5073 24.3153 11.9198C24.1104 11.3324 23.4608 11.0196 22.864 11.2212C21.9863 11.5184 21.305 11.6256 20.8034 11.6251C20.2574 11.6227 19.9297 11.5091 19.6928 11.3691C19.3463 11.1612 19.1219 10.823 18.9699 10.3748C18.8215 9.9354 18.7819 9.43075 18.7838 9.11516Z" fill="#DED056"/>
<path d="M0.194477 23.9509C0.173915 24.3905 0.518766 24.7632 0.965288 24.7836C1.41181 24.8042 1.79022 24.4644 1.81121 24.0248C1.82963 23.6333 1.55746 23.2954 1.18205 23.2118L1.18676 23.1096C1.27158 23.0986 1.35255 23.0753 1.42737 23.0404C1.78693 23.3755 2.26416 23.5913 2.7975 23.616L5.9797 23.7635L5.99641 23.4146L10.7162 23.6138C11.3705 23.6412 11.9873 23.314 12.324 22.7611L14.4538 19.2609L17.116 22.2337L16.3074 25.4179L15.961 25.3327L15.1882 28.3754C15.0515 28.9136 15.1405 29.4541 15.3931 29.9044C15.3559 29.9521 15.3247 30.0047 15.2991 30.0611L15.1806 30.032C15.2064 29.6543 14.9557 29.301 14.5694 29.2061C14.136 29.0997 13.6968 29.3595 13.5888 29.7864C13.4806 30.2133 13.7445 30.6454 14.1782 30.7519C14.5646 30.8466 14.9545 30.6505 15.1116 30.3048L15.23 30.3339C15.2037 30.7118 15.4546 31.065 15.8409 31.1598C16.1487 31.2354 16.4586 31.1259 16.6517 30.9035C16.6835 30.9128 16.7142 30.9241 16.7468 30.9321C16.8067 30.9468 16.8666 30.9579 16.9266 30.9675C16.9898 31.2545 17.2117 31.4963 17.5207 31.5721C17.907 31.6668 18.2972 31.4707 18.4542 31.1251L18.5553 31.1498C18.529 31.5277 18.7799 31.8809 19.1662 31.9758C19.5998 32.0822 20.0388 31.8226 20.147 31.3957C20.2553 30.9688 19.9911 30.5366 19.5574 30.4301C19.1714 30.3353 18.7813 30.5314 18.6243 30.8771L18.5232 30.8522C18.529 30.7684 18.5216 30.6859 18.5016 30.6071C18.9061 30.3261 19.215 29.9077 19.3444 29.3977L20.1172 26.3551L19.7706 26.2699L20.8066 22.1901C20.9485 21.6315 20.8007 21.0339 20.4141 20.6022L16.0696 15.7507C16.4071 14.75 16.928 13.7616 17.4986 12.8338C17.2658 12.5846 17.0609 12.3043 16.8917 11.9979C16.2993 10.9091 16.2207 9.83278 16.2131 9.11784C16.2139 8.80099 16.2344 8.58733 16.2408 8.52927C16.322 7.81573 16.9313 7.27833 17.6588 7.27833C17.7118 7.27833 17.7653 7.28128 17.8187 7.28718C18.598 7.37265 19.1637 8.06637 19.0802 8.83375L19.0763 8.8852C19.0728 8.93819 19.0691 9.01607 19.0693 9.1139C19.0685 9.2667 19.0783 9.78991 19.235 10.2667C19.3429 10.1142 19.4488 9.9645 19.5484 9.82154C20.4889 8.69781 20.6724 6.95136 19.6745 6.20043C19.5297 6.09149 19.3658 5.99688 19.1876 5.91873C19.1866 5.91816 19.1856 5.91746 19.1846 5.9169L19.1843 5.91662C19.0958 5.87894 16.4965 4.49587 13.1458 4.48462C11.6361 4.48378 9.95927 4.77982 8.35582 5.65895C7.80448 5.96118 7.60643 6.6459 7.91329 7.18878C8.22016 7.73125 8.91586 7.92622 9.46734 7.62441C10.6663 6.96767 11.9314 6.7346 13.1458 6.73404C13.9059 6.73319 14.641 6.82752 15.3024 6.96387C15.3024 6.96387 15.302 6.96415 15.3018 6.96443C13.2656 9.18714 12.3291 10.7996 11.4079 13.8098C11.1209 15.0941 11.4379 15.9153 11.9871 16.4763L9.80748 20.0578L6.16419 19.9043L6.18104 19.5509L2.99855 19.4036C2.4358 19.3774 1.91474 19.5696 1.51591 19.9019C1.46093 19.8755 1.40239 19.8555 1.34098 19.8419L1.3467 19.7218C1.72824 19.6728 2.03069 19.3612 2.04911 18.9696C2.06995 18.5302 1.7251 18.1574 1.27844 18.1372C0.831917 18.1166 0.453509 18.4564 0.432803 18.8957C0.414097 19.2872 0.686123 19.625 1.06125 19.7086L1.05553 19.8286C0.674271 19.8778 0.371687 20.1893 0.353266 20.5808C0.338701 20.8928 0.508628 21.1703 0.767944 21.3129C0.764803 21.3455 0.759662 21.3776 0.758234 21.4106C0.755378 21.4714 0.75595 21.5312 0.758234 21.591C0.484781 21.7086 0.287723 21.9704 0.273015 22.2834C0.254594 22.6749 0.526477 23.0129 0.901601 23.0965L0.896746 23.1988C0.515625 23.2482 0.213184 23.5597 0.194477 23.9509ZM16.1229 30.0453C16.2654 30.0802 16.3659 30.1948 16.3889 30.3287L15.7529 30.1727C15.837 30.065 15.9804 30.0103 16.1229 30.0453ZM17.4329 30.585C17.517 30.4773 17.6605 30.4226 17.803 30.4576C17.9453 30.4926 18.0461 30.6072 18.0689 30.7412L17.4329 30.585ZM14.287 30.3211C14.0953 30.2741 13.9788 30.0829 14.0265 29.8941C14.0742 29.7052 14.2683 29.5902 14.4602 29.6374C14.6027 29.6723 14.7032 29.7868 14.7262 29.9207L14.4081 29.8426C14.3315 29.8241 14.2541 29.8698 14.2349 29.9451C14.2157 30.0205 14.2624 30.0968 14.3391 30.1155L14.6572 30.1935C14.5731 30.3013 14.4295 30.356 14.287 30.3211ZM15.95 30.7291C15.8075 30.6941 15.7068 30.5795 15.6838 30.4455L16.3201 30.6016C16.2359 30.7094 16.0923 30.7641 15.95 30.7291ZM17.6298 31.1414C17.4873 31.1064 17.3866 30.9919 17.3638 30.8578L17.9999 31.014C17.9158 31.1217 17.7723 31.1764 17.6298 31.1414ZM19.4482 30.8615C19.6401 30.9084 19.7566 31.0998 19.7089 31.2886C19.6612 31.4773 19.4669 31.5923 19.2753 31.5454C19.1327 31.5104 19.0321 31.3958 19.0092 31.2618L19.3271 31.3399C19.3387 31.3427 19.3501 31.3439 19.3615 31.3439C19.4256 31.3439 19.4839 31.3013 19.5003 31.2374C19.5194 31.162 19.4727 31.0857 19.3962 31.067L19.0783 30.989C19.1624 30.881 19.3058 30.8265 19.4482 30.8615ZM19.5059 27.6025L18.4025 27.3236L18.287 27.7661L19.3932 28.0456L19.2486 28.6152L18.1703 28.3427L18.0548 28.7853L19.1357 29.0584L19.0669 29.33C18.9604 29.7493 18.7125 30.1026 18.3814 30.3477C18.2734 30.1935 18.1108 30.0756 17.9117 30.0266C17.5254 29.9319 17.1356 30.128 16.9784 30.4735L16.8429 30.4402C16.8687 30.0625 16.618 29.7092 16.2317 29.6145C16.0114 29.5604 15.7896 29.6013 15.6105 29.7104C15.4086 29.3185 15.3555 28.8741 15.4648 28.4438L16.1685 25.6736L19.7705 26.5602L19.5059 27.6025ZM1.36026 24.0043C1.35126 24.1986 1.18377 24.3488 0.985993 24.3398C0.788793 24.331 0.636287 24.166 0.645426 23.9718C0.652137 23.8275 0.746382 23.7078 0.875184 23.6592L0.860048 23.9814C0.856192 24.0591 0.917166 24.1249 0.995703 24.1283C0.998131 24.1284 1.00042 24.1284 1.00284 24.1284C1.07867 24.1284 1.14178 24.0697 1.14507 23.9943L1.1602 23.6719C1.28429 23.7319 1.36711 23.8598 1.36026 24.0043ZM1.31942 20.3021C1.44322 20.362 1.52605 20.4897 1.51919 20.6341C1.51234 20.7786 1.41795 20.8984 1.28886 20.9469L1.31942 20.3021ZM1.20861 22.6496L1.23903 22.0047C1.36312 22.0646 1.4458 22.1925 1.43894 22.337C1.43209 22.4812 1.3377 22.6011 1.20861 22.6496ZM2.98513 19.6843L5.8826 19.8185L5.70796 23.4694L4.61743 23.4191L4.67854 22.2993L4.21474 22.275L4.15406 23.3977L3.55817 23.3702L3.61757 22.2758L3.15406 22.2514L3.0948 23.3487L2.81078 23.3356C2.3724 23.3151 1.97171 23.1451 1.66227 22.8738C1.79464 22.7393 1.88004 22.5591 1.8896 22.3574C1.90802 21.9659 1.63586 21.6281 1.26073 21.5443L1.2673 21.407C1.64871 21.3581 1.95158 21.0466 1.97 20.6548C1.98042 20.4314 1.89603 20.2255 1.75238 20.0741C2.10266 19.8021 2.53504 19.6633 2.98513 19.6843ZM0.883323 18.9163C0.892605 18.7221 1.0601 18.5721 1.25759 18.5809C1.45508 18.5899 1.60758 18.7545 1.59873 18.9491C1.59188 19.0933 1.49749 19.2131 1.36854 19.2616L1.38368 18.9393C1.38753 18.8615 1.32656 18.7957 1.24759 18.7922C1.16891 18.7884 1.10223 18.8484 1.09823 18.9262L1.08309 19.2484C0.959433 19.1885 0.876755 19.0607 0.883323 18.9163ZM0.804215 20.6016C0.811069 20.4573 0.905314 20.3377 1.03397 20.2892L1.0037 20.9337C0.880039 20.8737 0.79736 20.746 0.804215 20.6016ZM0.723821 22.3044C0.730675 22.1599 0.82492 22.0402 0.953722 21.9918L0.923449 22.6363C0.799645 22.5762 0.716966 22.4485 0.723821 22.3044Z" fill="#DED056"/>
</g>
<defs>
<clipPath id="clip0_169_20">
<rect width="25.8065" height="32" fill="white" transform="translate(0.193604)"/>
</clipPath>
</defs>
</svg>
