<svg width="69" height="40" viewBox="0 0 69 40" fill="none" xmlns="http://www.w3.org/2000/svg">
<path d="M68.3347 10.6794L62.9535 3.92902C61.3896 1.9492 59.1838 0.613194 56.7392 0.165226C54.2947 -0.282742 51.7747 0.187258 49.6399 1.48931L37.283 8.94982L20.4592 3.19388C20.1909 3.10236 19.8992 3.11482 19.6393 3.22889L14.8757 5.32411C14.3412 5.5593 13.873 5.92882 13.5142 6.39858C13.1554 6.86835 12.9176 7.42326 12.8227 8.01217C12.7278 8.60107 12.7788 9.20502 12.9712 9.76835C13.1635 10.3317 13.4908 10.8363 13.9231 11.2356L21.5987 18.326L15.4013 21.9608L7.84598 18.6375C7.70226 18.5743 7.54755 18.5418 7.39122 18.5418C7.23488 18.5418 7.08018 18.5743 6.93646 18.6375L2.09987 20.765C1.5708 20.9977 1.10656 21.362 0.749086 21.8251C0.391615 22.2881 0.152184 22.8353 0.0524268 23.4172C-0.0473304 23.999 -0.00427004 24.5972 0.177717 25.1577C0.359704 25.7182 0.674883 26.2233 1.09478 26.6274L11.9777 37.0992C13.6038 38.6782 15.6856 39.6723 17.9097 39.932C20.1339 40.1917 22.38 39.7029 24.3101 38.5391L68.0215 12.4547C68.166 12.3685 68.2905 12.2511 68.3864 12.1106C68.4823 11.9702 68.5474 11.81 68.5772 11.6412C68.607 11.4725 68.6007 11.2991 68.5589 11.133C68.517 10.9669 68.4405 10.8122 68.3347 10.6794Z" fill="#DED056"/>
</svg>
