<svg width="43" height="22" viewBox="0 0 43 22" fill="none" xmlns="http://www.w3.org/2000/svg">
<path d="M20.8539 21C20.0006 18.6 16.8039 16.1267 11.2639 13.58C14.8139 13.12 17.3239 12.75 19.8439 12.49C22.5539 12.21 25.2639 11.95 27.9839 11.82C31.6639 11.64 35.3539 11.63 39.0339 11.44C40.4939 11.36 42.7239 12 42.6839 9.56C42.6439 7.4 40.4939 7.4 38.9939 7.43C33.5539 7.52 28.1239 7.72 22.6939 8.07C19.6739 8.27 16.6839 8.84 13.1539 9.32C16.2339 5.5 21.2839 4.67 23.8239 -1.04138e-06C22.2239 0.089999 21.1039 -0.120001 20.2139 0.249999C13.6639 2.93 7.50392 6.32 2.09392 10.95C1.61392 11.36 1.11393 11.8 0.753925 12.32C-0.586075 14.25 -0.136067 16.3 2.07393 16.94C7.90393 18.63 13.8039 20.07 19.6839 21.58C19.9139 21.64 20.2339 21.32 20.8639 21L20.8539 21Z" fill="#BA6619"/>
</svg>
