<svg width="41" height="40" viewBox="0 0 41 40" fill="none" xmlns="http://www.w3.org/2000/svg">
<path d="M0.894531 2.5C0.894531 1.11719 2.01172 0 3.39453 0H38.3945C39.7773 0 40.8945 1.11719 40.8945 2.5C40.8945 3.88281 39.7773 5 38.3945 5V35C39.7773 35 40.8945 36.1172 40.8945 37.5C40.8945 38.8828 39.7773 40 38.3945 40H24.6445V36.25C24.6445 34.1797 22.9648 32.5 20.8945 32.5C18.8242 32.5 17.1445 34.1797 17.1445 36.25V40H3.39453C2.01172 40 0.894531 38.8828 0.894531 37.5C0.894531 36.1172 2.01172 35 3.39453 35V5C2.01172 5 0.894531 3.88281 0.894531 2.5ZM8.39453 8.75V11.25C8.39453 11.9375 8.95703 12.5 9.64453 12.5H12.1445C12.832 12.5 13.3945 11.9375 13.3945 11.25V8.75C13.3945 8.0625 12.832 7.5 12.1445 7.5H9.64453C8.95703 7.5 8.39453 8.0625 8.39453 8.75ZM19.6445 7.5C18.957 7.5 18.3945 8.0625 18.3945 8.75V11.25C18.3945 11.9375 18.957 12.5 19.6445 12.5H22.1445C22.832 12.5 23.3945 11.9375 23.3945 11.25V8.75C23.3945 8.0625 22.832 7.5 22.1445 7.5H19.6445ZM28.3945 8.75V11.25C28.3945 11.9375 28.957 12.5 29.6445 12.5H32.1445C32.832 12.5 33.3945 11.9375 33.3945 11.25V8.75C33.3945 8.0625 32.832 7.5 32.1445 7.5H29.6445C28.957 7.5 28.3945 8.0625 28.3945 8.75ZM9.64453 15C8.95703 15 8.39453 15.5625 8.39453 16.25V18.75C8.39453 19.4375 8.95703 20 9.64453 20H12.1445C12.832 20 13.3945 19.4375 13.3945 18.75V16.25C13.3945 15.5625 12.832 15 12.1445 15H9.64453ZM18.3945 16.25V18.75C18.3945 19.4375 18.957 20 19.6445 20H22.1445C22.832 20 23.3945 19.4375 23.3945 18.75V16.25C23.3945 15.5625 22.832 15 22.1445 15H19.6445C18.957 15 18.3945 15.5625 18.3945 16.25ZM29.6445 15C28.957 15 28.3945 15.5625 28.3945 16.25V18.75C28.3945 19.4375 28.957 20 29.6445 20H32.1445C32.832 20 33.3945 19.4375 33.3945 18.75V16.25C33.3945 15.5625 32.832 15 32.1445 15H29.6445ZM26.5195 30C27.5586 30 28.418 29.1484 28.1602 28.1406C27.332 24.8984 24.3945 22.5 20.8945 22.5C17.3945 22.5 14.4492 24.8984 13.6289 28.1406C13.3711 29.1406 14.2383 30 15.2695 30H26.5195Z" fill="#DED056"/>
</svg>
