<svg width="18" height="20" viewBox="0 0 18 20" fill="none" xmlns="http://www.w3.org/2000/svg">
<path d="M9.12994 15.6522H8.26047C8.02987 15.6522 7.80872 15.5606 7.64567 15.3975C7.48261 15.2344 7.39101 15.0132 7.39101 14.7826L7.39237 12.4506C7.39239 12.4315 7.38739 12.4127 7.37786 12.3962C7.36834 12.3796 7.35462 12.3659 7.33809 12.3563C7.32157 12.3467 7.30281 12.3417 7.28372 12.3417C7.26463 12.3417 7.24587 12.3467 7.22934 12.3563L5.20947 13.5264C5.01302 13.6398 4.77958 13.6705 4.56047 13.6118C4.34137 13.5531 4.15456 13.4098 4.04112 13.2133L3.5928 12.4351L3.59117 12.4324C3.48079 12.236 3.45186 12.0041 3.5106 11.7866C3.56933 11.5692 3.71104 11.3834 3.90527 11.2693L5.93248 10.094C5.94895 10.0845 5.96262 10.0708 5.97212 10.0543C5.98163 10.0378 5.98663 10.0191 5.98663 10C5.98663 9.98097 5.98163 9.96226 5.97212 9.94576C5.96262 9.92926 5.94895 9.91555 5.93248 9.90599L3.90717 8.73181C3.80965 8.67588 3.72415 8.60124 3.65556 8.51217C3.58697 8.4231 3.53665 8.32136 3.50749 8.21279C3.47833 8.10421 3.4709 7.99094 3.48564 7.87949C3.50037 7.76804 3.53697 7.66059 3.59335 7.56333L4.04004 6.78751C4.09648 6.68943 4.17182 6.60353 4.26169 6.53477C4.35157 6.46602 4.45419 6.41578 4.56362 6.38697C4.67179 6.35794 4.78466 6.35067 4.89567 6.3656C5.00667 6.38052 5.11361 6.41735 5.21028 6.47393L7.22934 7.6424C7.24587 7.65195 7.26463 7.65697 7.28372 7.65697C7.30281 7.65696 7.32157 7.65192 7.33809 7.64236C7.35462 7.63281 7.36834 7.61906 7.37786 7.60252C7.38739 7.58597 7.39239 7.5672 7.39237 7.54811L7.39101 5.2174C7.39101 4.98678 7.48261 4.7656 7.64567 4.60253C7.80872 4.43945 8.02987 4.34784 8.26047 4.34784H9.12994C9.36053 4.34784 9.58168 4.43945 9.74474 4.60253C9.9078 4.7656 9.9994 4.98678 9.9994 5.2174V7.54675C9.99937 7.56585 10.0044 7.58461 10.0139 7.60116C10.0234 7.6177 10.0371 7.63145 10.0537 7.64101C10.0702 7.65056 10.089 7.6556 10.108 7.65561C10.1271 7.65562 10.1459 7.65059 10.1624 7.64105L12.1823 6.47094C12.3788 6.35774 12.6122 6.32712 12.8312 6.38581C13.0502 6.4445 13.2371 6.5877 13.3506 6.78398L13.7987 7.56224L13.8003 7.56469C13.912 7.76127 13.9414 7.99402 13.8821 8.21219C13.8229 8.43037 13.6798 8.61627 13.4841 8.72936L11.459 9.90327C11.4425 9.91283 11.4289 9.92654 11.4194 9.94304C11.4099 9.95955 11.4049 9.97825 11.4049 9.9973C11.4049 10.0163 11.4099 10.035 11.4194 10.0515C11.4289 10.068 11.4425 10.0818 11.459 10.0913L13.4841 11.2652C13.5816 11.3212 13.6671 11.3958 13.7357 11.4849C13.8043 11.5739 13.8546 11.6757 13.8838 11.7842C13.913 11.8928 13.9204 12.006 13.9057 12.1175C13.891 12.229 13.8545 12.3364 13.7981 12.4337L13.3515 13.2095C13.295 13.3076 13.2197 13.3935 13.1298 13.4623C13.0399 13.531 12.9373 13.5813 12.8279 13.6101C12.7197 13.6391 12.6068 13.6464 12.4958 13.6314C12.3848 13.6165 12.2779 13.5797 12.1812 13.5231L10.1622 12.3546C10.1456 12.3451 10.1269 12.3401 10.1078 12.3401C10.0888 12.3401 10.07 12.3451 10.0535 12.3546C10.037 12.3641 10.0233 12.3778 10.0137 12.3943C10.0042 12.4109 9.99915 12.4296 9.99913 12.4487L9.9994 14.7826C9.9994 15.0132 9.9078 15.2344 9.74474 15.3975C9.58168 15.5606 9.36053 15.6522 9.12994 15.6522Z" fill="#BA6619"/>
</svg>
