<svg width="90" height="67" viewBox="0 0 90 67" fill="none" xmlns="http://www.w3.org/2000/svg">
<path d="M82.1027 48.1597C85.1518 45.0354 84.0808 39.6027 89.4261 37.9253C89.3649 39.1298 89.4568 39.9026 89.2704 40.587C87.1202 48.1474 84.9782 55.7021 82.6834 63.2281C82.3089 64.4527 81.4042 66.1244 80.3953 66.4381C78.5323 67.0083 77.7526 65.2642 77.1301 63.6791C75.2273 58.7662 73.2555 53.8763 71.2997 48.9391C73.3873 48.603 75.9127 51.0116 78.8758 56.1649C81.5724 40.0083 69.9868 26.2569 53.9901 26.9146C54.1383 28.4967 54.3391 30.0671 54.4374 31.647C54.7145 36.2898 53.6836 40.5424 50.7244 44.2592C48.5475 46.9937 45.7985 48.4477 42.3202 47.6992C38.739 46.9242 37.1547 44.1795 36.3793 40.846C34.7002 33.6368 37.8419 27.4215 44.6838 24.4069C45.5311 24.034 46.316 23.5342 47.4076 22.9338C42.7281 14.8071 36.4251 8.80673 27.6947 5.95414C14.2342 1.54901 5.85881 10.4916 2.6504 19.889C2.25859 21.0528 2.07001 22.2837 1.61766 24.2276C0.113766 21.4765 0.560655 19.2941 1.0166 17.1782C2.7808 8.84 10.6226 1.77563 19.1184 0.792102C24.5533 0.167665 29.669 1.23877 34.4146 3.93112C41.3881 7.89915 47.0426 13.2162 50.8732 20.3485C51.2528 21.0459 51.671 21.7291 52.2054 22.6356C59.6022 22.8266 66.7737 23.9466 72.7529 29.0298C78.5976 33.9869 79.9904 41.1495 82.1053 48.1458L82.1027 48.1597ZM49.3511 27.286C41.8268 28.5747 37.9543 33.9328 39.8916 40.1906C40.3466 41.6721 41.6967 43.3294 43.0684 43.9546C45.0172 44.8396 46.6459 43.4122 47.8165 41.7042C50.8452 37.2738 50.9752 32.5709 49.3594 27.2803L49.3511 27.286Z" fill="#BA6619"/>
</svg>
