<svg width="74" height="68" viewBox="0 0 74 68" fill="none" xmlns="http://www.w3.org/2000/svg">
<rect x="0.25" y="0.25" width="73.5" height="67.5" rx="15.75" stroke="#362F08" stroke-width="0.5"/>
<path d="M54.8592 28.8737L51.9566 25.161C51.1131 24.0721 49.9233 23.3373 48.6047 23.0909C47.2861 22.8445 45.9269 23.103 44.7754 23.8191L38.1102 27.9224L29.0355 24.7566C28.8908 24.7063 28.7335 24.7132 28.5933 24.7759L26.0239 25.9283C25.7355 26.0576 25.483 26.2608 25.2895 26.5192C25.0959 26.7776 24.9677 27.0828 24.9165 27.4067C24.8653 27.7306 24.8928 28.0628 24.9965 28.3726C25.1003 28.6824 25.2768 28.9599 25.51 29.1796L29.6502 33.0793L26.3073 35.0785L22.2321 33.2506C22.1545 33.2159 22.0711 33.198 21.9868 33.198C21.9024 33.198 21.819 33.2159 21.7415 33.2506L19.1327 34.4207C18.8473 34.5487 18.5969 34.7491 18.4041 35.0038C18.2112 35.2585 18.0821 35.5594 18.0283 35.8794C17.9745 36.1995 17.9977 36.5285 18.0959 36.8367C18.194 37.145 18.364 37.4228 18.5905 37.6451L24.4607 43.4045C25.3378 44.273 26.4607 44.8198 27.6604 44.9626C28.8601 45.1054 30.0716 44.8366 31.1127 44.1965L54.6903 29.8501C54.7682 29.8027 54.8353 29.7381 54.8871 29.6608C54.9388 29.5836 54.974 29.4955 54.99 29.4027C55.0061 29.3099 55.0027 29.2145 54.9801 29.1232C54.9576 29.0318 54.9163 28.9467 54.8592 28.8737Z" fill="#BA6619"/>
</svg>
