<svg width="37" height="22" viewBox="0 0 37 22" fill="none" xmlns="http://www.w3.org/2000/svg">
<path d="M36.8592 5.87368L33.9566 2.16096C33.1131 1.07206 31.9233 0.337257 30.6047 0.0908744C29.2861 -0.155508 27.9269 0.102992 26.7754 0.819118L20.1102 4.9224L11.0355 1.75663C10.8908 1.7063 10.7335 1.71315 10.5933 1.77589L8.02386 2.92826C7.73554 3.05762 7.48299 3.26085 7.28946 3.51922C7.09593 3.77759 6.96766 4.0828 6.91647 4.40669C6.86528 4.73059 6.89281 5.06276 6.99654 5.37259C7.10027 5.68243 7.27685 5.95995 7.51 6.17957L11.6502 10.0793L8.30732 12.0785L4.23206 10.2506C4.15454 10.2159 4.07109 10.198 3.98677 10.198C3.90244 10.198 3.81899 10.2159 3.74147 10.2506L1.13266 11.4207C0.847278 11.5487 0.596868 11.7491 0.404051 12.0038C0.211234 12.2585 0.0820869 12.5594 0.0282786 12.8794C-0.0255297 13.1995 -0.00230323 13.5285 0.0958593 13.8367C0.194022 14.145 0.364027 14.4228 0.590513 14.6451L6.4607 20.4045C7.33779 21.273 8.46069 21.8198 9.66038 21.9626C10.8601 22.1054 12.0716 21.8366 13.1127 21.1965L36.6903 6.8501C36.7682 6.80265 36.8353 6.73808 36.8871 6.66084C36.9388 6.58359 36.974 6.49552 36.99 6.40269C37.0061 6.30986 37.0027 6.21448 36.9801 6.12315C36.9576 6.03182 36.9163 5.9467 36.8592 5.87368Z" fill="#BA6619"/>
</svg>
