<svg width="97" height="72" viewBox="0 0 97 72" fill="none" xmlns="http://www.w3.org/2000/svg">
<path d="M96.631 15.1016L89.0214 5.55596C86.81 2.75634 83.6908 0.867107 80.2339 0.233643C76.7771 -0.39982 73.2137 0.264798 70.195 2.106L52.7213 12.6558L28.931 4.5164C28.5516 4.387 28.1392 4.40461 27.7716 4.56592L21.0355 7.52872C20.2797 7.86131 19.6176 8.38383 19.1102 9.04813C18.6028 9.71242 18.2666 10.4971 18.1324 11.3299C17.9982 12.1626 18.0703 13.0167 18.3423 13.8133C18.6142 14.6099 19.0771 15.3234 19.6884 15.8881L30.5424 25.9145L21.7787 31.0544L11.0949 26.355C10.8916 26.2657 10.6729 26.2196 10.4518 26.2196C10.2307 26.2196 10.012 26.2657 9.80872 26.355L2.96939 29.3634C2.22124 29.6925 1.56476 30.2077 1.05927 30.8625C0.553776 31.5173 0.215201 32.291 0.0741358 33.1138C-0.0669291 33.9366 -0.00603819 34.7825 0.251307 35.5751C0.508652 36.3676 0.954341 37.0819 1.5481 37.6534L16.9375 52.4613C19.2369 54.6941 22.1807 56.1 25.3259 56.4672C28.471 56.8344 31.6472 56.1432 34.3765 54.4974L96.188 17.612C96.3923 17.49 96.5683 17.324 96.704 17.1254C96.8397 16.9268 96.9317 16.7004 96.9739 16.4617C97.016 16.223 97.0071 15.9778 96.9479 15.743C96.8887 15.5082 96.7806 15.2893 96.631 15.1016Z" fill="#DED056"/>
<path d="M60.665 70.726C61.048 70.2473 61.2632 69.598 61.2632 68.921C61.2632 68.244 61.048 67.5948 60.665 67.1161C60.2821 66.6374 59.7627 66.3684 59.2211 66.3684H40.8421H22.4632C21.9216 66.3684 21.4021 66.6373 21.0192 67.1161C20.6362 67.5948 20.4211 68.244 20.4211 68.921C20.4211 69.598 20.6362 70.2473 21.0192 70.726C21.4021 71.2047 21.9216 71.4737 22.4632 71.4737H59.2211C59.7627 71.4737 60.2821 71.2047 60.665 70.726Z" fill="white"/>
<path d="M10.061 70.726C10.1567 70.2473 10.2105 69.598 10.2105 68.921C10.2105 68.244 10.1567 67.5948 10.061 67.1161C9.96525 66.6374 9.8354 66.3684 9.7 66.3684H5.10526H0.510526C0.375126 66.3684 0.245272 66.6373 0.14953 67.1161C0.0537874 67.5948 0 68.244 0 68.921C0 69.598 0.0537874 70.2473 0.14953 70.726C0.245272 71.2047 0.375126 71.4737 0.510526 71.4737H9.7C9.8354 71.4737 9.96525 71.2047 10.061 70.726Z" fill="white"/>
</svg>
