<svg width="74" height="68" viewBox="0 0 74 68" fill="none" xmlns="http://www.w3.org/2000/svg">
<rect x="0.25" y="0.25" width="73.5" height="67.5" rx="15.75" stroke="#362F08" stroke-width="0.5"/>
<g clip-path="url(#clip0_45_1985)">
<path d="M25 24.5C25 23.6703 25.6703 23 26.5 23H47.5C48.3297 23 49 23.6703 49 24.5C49 25.3297 48.3297 26 47.5 26V44C48.3297 44 49 44.6703 49 45.5C49 46.3297 48.3297 47 47.5 47H39.25V44.75C39.25 43.5078 38.2422 42.5 37 42.5C35.7578 42.5 34.75 43.5078 34.75 44.75V47H26.5C25.6703 47 25 46.3297 25 45.5C25 44.6703 25.6703 44 26.5 44V26C25.6703 26 25 25.3297 25 24.5ZM29.5 28.25V29.75C29.5 30.1625 29.8375 30.5 30.25 30.5H31.75C32.1625 30.5 32.5 30.1625 32.5 29.75V28.25C32.5 27.8375 32.1625 27.5 31.75 27.5H30.25C29.8375 27.5 29.5 27.8375 29.5 28.25ZM36.25 27.5C35.8375 27.5 35.5 27.8375 35.5 28.25V29.75C35.5 30.1625 35.8375 30.5 36.25 30.5H37.75C38.1625 30.5 38.5 30.1625 38.5 29.75V28.25C38.5 27.8375 38.1625 27.5 37.75 27.5H36.25ZM41.5 28.25V29.75C41.5 30.1625 41.8375 30.5 42.25 30.5H43.75C44.1625 30.5 44.5 30.1625 44.5 29.75V28.25C44.5 27.8375 44.1625 27.5 43.75 27.5H42.25C41.8375 27.5 41.5 27.8375 41.5 28.25ZM30.25 32C29.8375 32 29.5 32.3375 29.5 32.75V34.25C29.5 34.6625 29.8375 35 30.25 35H31.75C32.1625 35 32.5 34.6625 32.5 34.25V32.75C32.5 32.3375 32.1625 32 31.75 32H30.25ZM35.5 32.75V34.25C35.5 34.6625 35.8375 35 36.25 35H37.75C38.1625 35 38.5 34.6625 38.5 34.25V32.75C38.5 32.3375 38.1625 32 37.75 32H36.25C35.8375 32 35.5 32.3375 35.5 32.75ZM42.25 32C41.8375 32 41.5 32.3375 41.5 32.75V34.25C41.5 34.6625 41.8375 35 42.25 35H43.75C44.1625 35 44.5 34.6625 44.5 34.25V32.75C44.5 32.3375 44.1625 32 43.75 32H42.25ZM40.375 41C40.9984 41 41.5141 40.4891 41.3594 39.8844C40.8625 37.9391 39.1 36.5 37 36.5C34.9 36.5 33.1328 37.9391 32.6406 39.8844C32.4859 40.4844 33.0063 41 33.625 41H40.375Z" fill="#BA6619"/>
</g>
<defs>
<clipPath id="clip0_45_1985">
<rect width="24" height="24" fill="white" transform="translate(25 23)"/>
</clipPath>
</defs>
</svg>
