<svg width="16" height="16" viewBox="0 0 16 16" fill="none" xmlns="http://www.w3.org/2000/svg">
<g clip-path="url(#clip0_45_1779)">
<path d="M0 1C0 0.446875 0.446875 0 1 0H15C15.5531 0 16 0.446875 16 1C16 1.55313 15.5531 2 15 2V14C15.5531 14 16 14.4469 16 15C16 15.5531 15.5531 16 15 16H9.5V14.5C9.5 13.6719 8.82812 13 8 13C7.17188 13 6.5 13.6719 6.5 14.5V16H1C0.446875 16 0 15.5531 0 15C0 14.4469 0.446875 14 1 14V2C0.446875 2 0 1.55313 0 1ZM3 3.5V4.5C3 4.775 3.225 5 3.5 5H4.5C4.775 5 5 4.775 5 4.5V3.5C5 3.225 4.775 3 4.5 3H3.5C3.225 3 3 3.225 3 3.5ZM7.5 3C7.225 3 7 3.225 7 3.5V4.5C7 4.775 7.225 5 7.5 5H8.5C8.775 5 9 4.775 9 4.5V3.5C9 3.225 8.775 3 8.5 3H7.5ZM11 3.5V4.5C11 4.775 11.225 5 11.5 5H12.5C12.775 5 13 4.775 13 4.5V3.5C13 3.225 12.775 3 12.5 3H11.5C11.225 3 11 3.225 11 3.5ZM3.5 6C3.225 6 3 6.225 3 6.5V7.5C3 7.775 3.225 8 3.5 8H4.5C4.775 8 5 7.775 5 7.5V6.5C5 6.225 4.775 6 4.5 6H3.5ZM7 6.5V7.5C7 7.775 7.225 8 7.5 8H8.5C8.775 8 9 7.775 9 7.5V6.5C9 6.225 8.775 6 8.5 6H7.5C7.225 6 7 6.225 7 6.5ZM11.5 6C11.225 6 11 6.225 11 6.5V7.5C11 7.775 11.225 8 11.5 8H12.5C12.775 8 13 7.775 13 7.5V6.5C13 6.225 12.775 6 12.5 6H11.5ZM10.25 12C10.6656 12 11.0094 11.6594 10.9062 11.2563C10.575 9.95938 9.4 9 8 9C6.6 9 5.42188 9.95938 5.09375 11.2563C4.99062 11.6562 5.3375 12 5.75 12H10.25Z" fill="white"/>
</g>
<defs>
<clipPath id="clip0_45_1779">
<rect width="16" height="16" fill="white"/>
</clipPath>
</defs>
</svg>
