<svg width="1055" height="82" viewBox="0 0 1055 82" fill="none" xmlns="http://www.w3.org/2000/svg">
<path d="M3 41C3 54.2552 13.7448 65 27 65C40.2552 65 51 54.2552 51 41C51 27.7448 40.2552 17 27 17" stroke="white" stroke-width="4.8" stroke-linecap="round" stroke-linejoin="round"/>
<path d="M41.4 41C41.4 33.0476 34.9524 26.6 27 26.6C19.0476 26.6 12.6 33.0476 12.6 41C12.6 48.9524 19.0476 55.4 27 55.4" stroke="white" stroke-width="4.8" stroke-linecap="round" stroke-linejoin="round"/>
<path d="M177.668 33.5435L173.363 28.1432C172.112 26.5594 170.347 25.4906 168.391 25.1322C166.436 24.7738 164.42 25.1498 162.712 26.1914L152.826 32.1599L139.367 27.5551C139.153 27.4819 138.919 27.4919 138.711 27.5831L134.901 29.2593C134.473 29.4474 134.098 29.7431 133.811 30.1189C133.524 30.4947 133.334 30.9386 133.258 31.4097C133.182 31.8809 133.223 32.364 133.377 32.8147C133.531 33.2653 133.793 33.669 134.138 33.9885L140.279 39.6608L135.321 42.5687L129.277 39.91C129.162 39.8595 129.038 39.8334 128.913 39.8334C128.788 39.8334 128.664 39.8595 128.549 39.91L124.68 41.612C124.257 41.7981 123.885 42.0896 123.599 42.4601C123.313 42.8305 123.122 43.2682 123.042 43.7337C122.962 44.1992 122.997 44.6778 123.142 45.1262C123.288 45.5746 123.54 45.9787 123.876 46.3019L132.582 54.6793C133.883 55.9425 135.548 56.7379 137.328 56.9456C139.107 57.1534 140.904 56.7623 142.448 55.8313L177.417 34.9638C177.533 34.8948 177.632 34.8008 177.709 34.6885C177.786 34.5761 177.838 34.448 177.862 34.313C177.886 34.178 177.881 34.0392 177.847 33.9064C177.814 33.7736 177.752 33.6498 177.668 33.5435Z" fill="#DED056"/>
<path d="M219.009 40.468C219.009 41.8467 219.317 42.8 219.933 43.328C220.578 43.8267 221.678 44.076 223.233 44.076V45C220.065 44.8827 218.041 44.824 217.161 44.824C216.339 44.824 214.433 44.868 211.441 44.956L210.385 45V44.076C211.939 44.076 213.098 43.812 213.861 43.284C214.653 42.756 215.049 41.8173 215.049 40.468V29.82C215.049 28.412 214.902 27.3853 214.609 26.74C214.315 26.0653 213.817 25.6253 213.113 25.42C212.438 25.1853 211.382 25.068 209.945 25.068V24.1C212.086 24.0413 213.846 23.8507 215.225 23.528C216.633 23.2053 217.894 22.648 219.009 21.856V40.468ZM237.582 21.724C239.635 21.724 241.468 22.208 243.082 23.176C244.695 24.1147 245.956 25.464 246.866 27.224C247.775 28.984 248.23 31.008 248.23 33.296C248.23 35.6427 247.76 37.7547 246.822 39.632C245.883 41.48 244.563 42.9467 242.862 44.032C241.19 45.088 239.268 45.616 237.098 45.616C235.074 45.616 233.255 45.1467 231.642 44.208C230.028 43.24 228.752 41.876 227.814 40.116C226.904 38.356 226.45 36.3173 226.45 34C226.45 31.6827 226.904 29.6 227.814 27.752C228.752 25.8747 230.058 24.408 231.73 23.352C233.431 22.2667 235.382 21.724 237.582 21.724ZM237.186 22.516C235.924 22.516 234.795 22.9707 233.798 23.88C232.83 24.76 232.067 26.0653 231.51 27.796C230.982 29.4973 230.718 31.5213 230.718 33.868C230.718 37.5933 231.348 40.3507 232.61 42.14C233.871 43.9293 235.499 44.824 237.494 44.824C238.755 44.824 239.87 44.3693 240.838 43.46C241.835 42.5507 242.598 41.2453 243.126 39.544C243.683 37.8133 243.962 35.7747 243.962 33.428C243.962 29.732 243.331 26.9893 242.07 25.2C240.808 23.4107 239.18 22.516 237.186 22.516ZM263.965 21.724C266.018 21.724 267.851 22.208 269.465 23.176C271.078 24.1147 272.339 25.464 273.249 27.224C274.158 28.984 274.613 31.008 274.613 33.296C274.613 35.6427 274.143 37.7547 273.205 39.632C272.266 41.48 270.946 42.9467 269.245 44.032C267.573 45.088 265.651 45.616 263.481 45.616C261.457 45.616 259.638 45.1467 258.025 44.208C256.411 43.24 255.135 41.876 254.197 40.116C253.287 38.356 252.833 36.3173 252.833 34C252.833 31.6827 253.287 29.6 254.197 27.752C255.135 25.8747 256.441 24.408 258.113 23.352C259.814 22.2667 261.765 21.724 263.965 21.724ZM263.569 22.516C262.307 22.516 261.178 22.9707 260.181 23.88C259.213 24.76 258.45 26.0653 257.893 27.796C257.365 29.4973 257.101 31.5213 257.101 33.868C257.101 37.5933 257.731 40.3507 258.993 42.14C260.254 43.9293 261.882 44.824 263.877 44.824C265.138 44.824 266.253 44.3693 267.221 43.46C268.218 42.5507 268.981 41.2453 269.509 39.544C270.066 37.8133 270.345 35.7747 270.345 33.428C270.345 29.732 269.714 26.9893 268.453 25.2C267.191 23.4107 265.563 22.516 263.569 22.516ZM301.831 41.436C302.33 42.1693 302.873 42.756 303.459 43.196C304.075 43.6067 304.823 43.9147 305.703 44.12V45C304.295 44.912 302.535 44.868 300.423 44.868C298.839 44.868 297.329 44.912 295.891 45V44.12C296.595 44.0907 297.109 44.0027 297.431 43.856C297.754 43.7093 297.915 43.4893 297.915 43.196C297.915 42.9027 297.769 42.5507 297.475 42.14L291.051 32.46C290.201 31.1693 289.482 30.3333 288.895 29.952C288.309 29.5413 287.487 29.3067 286.431 29.248V40.336C286.431 41.4507 286.519 42.2573 286.695 42.756C286.871 43.2547 287.194 43.592 287.663 43.768C288.162 43.944 288.939 44.0613 289.995 44.12V45C288.646 44.912 286.783 44.868 284.407 44.868C281.885 44.868 280.007 44.912 278.775 45V44.12C279.831 44.0613 280.594 43.944 281.063 43.768C281.562 43.592 281.899 43.2547 282.075 42.756C282.251 42.2573 282.339 41.4507 282.339 40.336V18.512C282.339 17.3973 282.251 16.5907 282.075 16.092C281.899 15.5933 281.562 15.256 281.063 15.08C280.594 14.904 279.831 14.7867 278.775 14.728V13.848C280.007 13.936 281.885 13.98 284.407 13.98C286.754 13.98 288.617 13.936 289.995 13.848V14.728C288.939 14.7867 288.162 14.904 287.663 15.08C287.194 15.256 286.871 15.5933 286.695 16.092C286.519 16.5907 286.431 17.3973 286.431 18.512V28.368C288.573 28.28 290.245 27.4587 291.447 25.904L295.671 20.536C297.167 18.688 297.915 17.28 297.915 16.312C297.915 15.2853 297.006 14.7573 295.187 14.728V13.848C296.859 13.936 298.546 13.98 300.247 13.98C301.861 13.98 303.107 13.936 303.987 13.848V14.728C303.019 14.8747 302.11 15.1973 301.259 15.696C300.409 16.1653 299.587 16.9133 298.795 17.94L291.623 27.136L301.831 41.436ZM319.487 28.72H329.695V30.04H319.487V40.38H317.903V30.04H307.651V28.72H317.903V18.336H319.487V28.72Z" fill="white"/>
<path d="M210.019 74.601V60.699C210.019 60.489 210.187 60.3 210.418 60.3H218.692C218.923 60.3 219.091 60.489 219.091 60.699V61.308C219.091 61.518 218.923 61.707 218.692 61.707H211.636V67.461H217.663C217.873 67.461 218.062 67.65 218.062 67.86V68.469C218.062 68.679 217.873 68.868 217.663 68.868H211.636V74.601C211.636 74.811 211.447 75 211.237 75H210.418C210.187 75 210.019 74.811 210.019 74.601ZM221.058 74.601V60.699C221.058 60.489 221.247 60.3 221.457 60.3H222.108C222.318 60.3 222.507 60.489 222.507 60.699V74.601C222.507 74.811 222.318 75 222.108 75H221.457C221.247 75 221.058 74.811 221.058 74.601ZM226.2 62.715C225.654 62.715 225.213 62.274 225.213 61.728C225.213 61.161 225.654 60.72 226.2 60.72C226.767 60.72 227.208 61.161 227.208 61.728C227.208 62.274 226.767 62.715 226.2 62.715ZM225.507 74.601V66.999C225.507 66.789 225.696 66.6 225.906 66.6H226.557C226.767 66.6 226.956 66.789 226.956 66.999V74.601C226.956 74.811 226.767 75 226.557 75H225.906C225.696 75 225.507 74.811 225.507 74.601ZM229.097 74.601C229.097 73.005 230.504 72.186 230.504 72.186C230.504 72.186 229.832 71.325 229.832 70.086C229.832 68.133 231.197 66.39 233.381 66.39H236.93C237.161 66.39 237.329 66.558 237.329 66.789V67.146C237.329 67.293 237.245 67.482 237.098 67.503L235.964 67.734C235.964 67.734 236.909 68.427 236.909 70.086C236.909 71.997 235.544 73.656 233.381 73.656C232.037 73.656 231.386 73.131 231.386 73.131C231.386 73.131 230.462 73.551 230.462 74.391C230.462 74.916 230.84 75.42 231.617 75.42H234.641C236.405 75.42 237.791 76.281 237.791 78.108C237.791 79.851 235.985 81.51 233.444 81.51C230.63 81.51 229.412 79.998 229.412 78.612C229.412 77.352 230.42 76.785 230.63 76.659V76.596C230.084 76.449 229.097 75.903 229.097 74.601ZM233.402 72.396C234.662 72.396 235.502 71.43 235.502 70.044C235.502 68.658 234.662 67.692 233.402 67.692C232.121 67.692 231.197 68.658 231.197 70.044C231.197 71.43 232.121 72.396 233.402 72.396ZM230.903 78.402C230.903 79.41 231.995 80.145 233.423 80.145C234.809 80.145 236.237 79.368 236.237 78.15C236.237 77.877 236.111 76.785 234.641 76.785C233.864 76.785 233.087 76.785 232.31 76.785C232.31 76.785 230.903 77.163 230.903 78.402ZM239.597 74.601V60.699C239.597 60.489 239.786 60.3 239.996 60.3H240.647C240.857 60.3 241.046 60.489 241.046 60.699V67.503C241.046 67.503 242.159 66.39 243.86 66.39C245.939 66.39 247.115 67.713 247.115 70.17V74.601C247.115 74.811 246.926 75 246.716 75H246.044C245.834 75 245.645 74.811 245.645 74.601V70.17C245.645 68.574 244.931 67.797 243.755 67.797C242.159 67.797 241.046 68.973 241.046 68.973V74.601C241.046 74.811 240.857 75 240.647 75H239.996C239.786 75 239.597 74.811 239.597 74.601ZM250.54 72.9V67.86H249.469C249.238 67.86 249.07 67.671 249.07 67.461V66.999C249.07 66.768 249.238 66.6 249.469 66.6H250.54V64.269C250.54 64.059 250.729 63.87 250.939 63.87L251.611 63.828C251.821 63.828 251.989 64.017 251.989 64.227V66.6H254.425C254.656 66.6 254.824 66.768 254.824 66.999V67.461C254.824 67.671 254.656 67.86 254.425 67.86H251.989V72.774C251.989 73.614 252.199 73.782 252.682 73.782C253.207 73.782 253.942 73.467 254.215 73.32C254.53 73.152 254.614 73.278 254.719 73.446L255.034 73.971C255.181 74.223 255.118 74.349 254.887 74.496C254.593 74.685 253.459 75.21 252.472 75.21C250.792 75.21 250.54 74.202 250.54 72.9ZM256.772 74.265C256.667 74.181 256.604 73.971 256.667 73.824C256.751 73.698 256.898 73.404 256.961 73.299C257.066 73.131 257.297 73.089 257.528 73.236C257.528 73.236 258.431 73.971 259.502 73.971C260.363 73.971 260.867 73.53 260.867 72.963C260.867 72.228 260.237 71.892 259.019 71.283C257.906 70.737 256.625 70.002 256.625 68.574C256.625 67.692 257.339 66.39 259.292 66.39C260.384 66.39 261.224 66.768 261.623 67.041C261.812 67.167 261.875 67.461 261.749 67.692L261.581 68.028C261.455 68.259 261.161 68.322 260.972 68.217C260.972 68.217 260.069 67.713 259.292 67.713C258.347 67.713 258.095 68.196 258.095 68.553C258.095 69.246 258.788 69.561 259.649 69.981C261.098 70.674 262.4 71.325 262.4 72.837C262.4 74.055 261.224 75.21 259.502 75.21C258.095 75.21 257.234 74.622 256.772 74.265ZM272.924 74.601V67.923L267.863 60.909C267.695 60.636 267.863 60.3 268.199 60.3H269.186C269.333 60.3 269.459 60.405 269.522 60.489L273.764 66.348L278.006 60.489C278.069 60.405 278.195 60.3 278.342 60.3H279.329C279.665 60.3 279.833 60.636 279.665 60.909L274.541 67.902V74.601C274.541 74.811 274.352 75 274.142 75H273.323C273.092 75 272.924 74.811 272.924 74.601ZM278.321 70.8C278.321 68.427 279.896 66.39 282.437 66.39C284.642 66.39 286.238 68.028 286.238 70.233C286.238 70.38 286.217 70.653 286.196 70.8C286.175 71.01 286.007 71.157 285.818 71.157H279.77C279.854 72.564 281.093 73.887 282.584 73.887C283.466 73.887 284.18 73.551 284.663 73.257C284.957 73.089 285.083 72.984 285.251 73.215C285.377 73.383 285.482 73.53 285.608 73.698C285.755 73.887 285.839 74.013 285.524 74.244C285.02 74.643 283.886 75.21 282.437 75.21C279.896 75.21 278.321 73.215 278.321 70.8ZM279.791 69.981H284.789C284.726 68.763 283.718 67.671 282.437 67.671C281.03 67.671 279.938 68.679 279.791 69.981ZM287.919 72.459C287.919 70.863 289.116 69.666 291.279 69.666C292.182 69.666 293.064 69.939 293.064 69.939C293.085 68.385 292.896 67.671 291.699 67.671C290.544 67.671 289.557 67.986 289.179 68.133C288.969 68.217 288.843 68.112 288.78 67.923L288.612 67.398C288.528 67.146 288.654 67.02 288.843 66.936C288.969 66.873 290.187 66.39 291.762 66.39C293.904 66.39 294.429 67.482 294.429 69.939V74.601C294.429 74.811 294.24 75 294.03 75H293.631C293.4 75 293.337 74.874 293.274 74.685L293.106 74.118C292.665 74.559 291.804 75.21 290.502 75.21C289.032 75.21 287.919 74.139 287.919 72.459ZM289.263 72.459C289.263 73.299 289.83 73.95 290.733 73.95C291.783 73.95 292.686 73.299 293.043 72.774V71.115C292.791 70.968 292.203 70.779 291.279 70.779C290.103 70.779 289.263 71.367 289.263 72.459ZM297.346 74.601V66.999C297.346 66.789 297.535 66.6 297.745 66.6H298.144C298.312 66.6 298.459 66.705 298.501 66.894L298.669 67.503C298.669 67.503 299.446 66.39 301.189 66.39C301.819 66.39 302.869 66.495 302.659 67.083L302.407 67.797C302.302 68.07 302.113 68.07 301.903 67.986C301.714 67.902 301.399 67.818 301.084 67.818C299.488 67.818 298.795 68.994 298.795 68.994V74.601C298.795 74.811 298.606 75 298.396 75H297.745C297.535 75 297.346 74.811 297.346 74.601ZM304.381 74.601V60.699C304.381 60.489 304.57 60.3 304.78 60.3H305.431C305.641 60.3 305.83 60.489 305.83 60.699V74.601C305.83 74.811 305.641 75 305.431 75H304.78C304.57 75 304.381 74.811 304.381 74.601ZM311.539 74.979L307.633 67.062C307.507 66.789 307.633 66.6 307.948 66.6H308.872C309.04 66.6 309.166 66.705 309.229 66.831L312.337 73.257H312.358L315.298 66.831C315.361 66.705 315.508 66.6 315.655 66.6H316.453C316.768 66.6 316.915 66.81 316.768 67.083L310.321 81.048C310.258 81.174 310.111 81.3 309.964 81.3H309.187C308.872 81.3 308.704 81.069 308.851 80.775L311.539 74.979Z" fill="white"/>
<line x1="408.456" y1="16.5" x2="408.456" y2="65.5" stroke="white"/>
<path d="M484.035 27C484.035 25.8937 484.929 25 486.035 25H514.035C515.141 25 516.035 25.8937 516.035 27C516.035 28.1063 515.141 29 514.035 29V53C515.141 53 516.035 53.8937 516.035 55C516.035 56.1063 515.141 57 514.035 57H503.035V54C503.035 52.3438 501.691 51 500.035 51C498.379 51 497.035 52.3438 497.035 54V57H486.035C484.929 57 484.035 56.1063 484.035 55C484.035 53.8937 484.929 53 486.035 53V29C484.929 29 484.035 28.1063 484.035 27ZM490.035 32V34C490.035 34.55 490.485 35 491.035 35H493.035C493.585 35 494.035 34.55 494.035 34V32C494.035 31.45 493.585 31 493.035 31H491.035C490.485 31 490.035 31.45 490.035 32ZM499.035 31C498.485 31 498.035 31.45 498.035 32V34C498.035 34.55 498.485 35 499.035 35H501.035C501.585 35 502.035 34.55 502.035 34V32C502.035 31.45 501.585 31 501.035 31H499.035ZM506.035 32V34C506.035 34.55 506.485 35 507.035 35H509.035C509.585 35 510.035 34.55 510.035 34V32C510.035 31.45 509.585 31 509.035 31H507.035C506.485 31 506.035 31.45 506.035 32ZM491.035 37C490.485 37 490.035 37.45 490.035 38V40C490.035 40.55 490.485 41 491.035 41H493.035C493.585 41 494.035 40.55 494.035 40V38C494.035 37.45 493.585 37 493.035 37H491.035ZM498.035 38V40C498.035 40.55 498.485 41 499.035 41H501.035C501.585 41 502.035 40.55 502.035 40V38C502.035 37.45 501.585 37 501.035 37H499.035C498.485 37 498.035 37.45 498.035 38ZM507.035 37C506.485 37 506.035 37.45 506.035 38V40C506.035 40.55 506.485 41 507.035 41H509.035C509.585 41 510.035 40.55 510.035 40V38C510.035 37.45 509.585 37 509.035 37H507.035ZM504.535 49C505.366 49 506.054 48.3188 505.848 47.5125C505.185 44.9188 502.835 43 500.035 43C497.235 43 494.879 44.9188 494.223 47.5125C494.016 48.3125 494.71 49 495.535 49H504.535Z" fill="#DED056"/>
<path d="M556.771 21.724C558.824 21.724 560.438 22.208 561.611 23.176C562.784 24.144 563.371 25.508 563.371 27.268C563.371 28.4707 563.048 29.644 562.403 30.788C561.787 31.9027 561.024 32.9293 560.115 33.868C559.235 34.8067 558.062 35.936 556.595 37.256C555.392 38.3707 554.498 39.2213 553.911 39.808C553.324 40.3653 552.796 40.9667 552.327 41.612H561.259C562.051 41.612 562.638 41.5533 563.019 41.436C563.43 41.2893 563.708 41.0693 563.855 40.776C564.002 40.4533 564.119 39.984 564.207 39.368H564.955C564.955 42.0667 565.014 44.0173 565.131 45.22C564.486 45.0733 562.3 45 558.575 45H548.279V44.252C548.778 43.724 549.628 42.888 550.831 41.744C552.503 40.1893 553.896 38.796 555.011 37.564C556.126 36.3027 557.079 34.88 557.871 33.296C558.692 31.712 559.103 30.0253 559.103 28.236C559.103 25.068 557.636 23.484 554.703 23.484C552.298 23.484 550.332 24.8627 548.807 27.62L548.103 27.224C548.866 25.64 549.951 24.3347 551.359 23.308C552.767 22.252 554.571 21.724 556.771 21.724ZM580.51 21.724C582.563 21.724 584.396 22.208 586.01 23.176C587.623 24.1147 588.884 25.464 589.794 27.224C590.703 28.984 591.158 31.008 591.158 33.296C591.158 35.6427 590.688 37.7547 589.75 39.632C588.811 41.48 587.491 42.9467 585.79 44.032C584.118 45.088 582.196 45.616 580.026 45.616C578.002 45.616 576.183 45.1467 574.57 44.208C572.956 43.24 571.68 41.876 570.742 40.116C569.832 38.356 569.378 36.3173 569.378 34C569.378 31.6827 569.832 29.6 570.742 27.752C571.68 25.8747 572.986 24.408 574.658 23.352C576.359 22.2667 578.31 21.724 580.51 21.724ZM580.114 22.516C578.852 22.516 577.723 22.9707 576.726 23.88C575.758 24.76 574.995 26.0653 574.438 27.796C573.91 29.4973 573.646 31.5213 573.646 33.868C573.646 37.5933 574.276 40.3507 575.538 42.14C576.799 43.9293 578.427 44.824 580.422 44.824C581.683 44.824 582.798 44.3693 583.766 43.46C584.763 42.5507 585.526 41.2453 586.054 39.544C586.611 37.8133 586.89 35.7747 586.89 33.428C586.89 29.732 586.259 26.9893 584.998 25.2C583.736 23.4107 582.108 22.516 580.114 22.516ZM618.377 41.436C618.875 42.1693 619.418 42.756 620.005 43.196C620.621 43.6067 621.369 43.9147 622.249 44.12V45C620.841 44.912 619.081 44.868 616.969 44.868C615.385 44.868 613.874 44.912 612.437 45V44.12C613.141 44.0907 613.654 44.0027 613.977 43.856C614.299 43.7093 614.461 43.4893 614.461 43.196C614.461 42.9027 614.314 42.5507 614.021 42.14L607.597 32.46C606.746 31.1693 606.027 30.3333 605.441 29.952C604.854 29.5413 604.033 29.3067 602.977 29.248V40.336C602.977 41.4507 603.065 42.2573 603.241 42.756C603.417 43.2547 603.739 43.592 604.209 43.768C604.707 43.944 605.485 44.0613 606.541 44.12V45C605.191 44.912 603.329 44.868 600.953 44.868C598.43 44.868 596.553 44.912 595.321 45V44.12C596.377 44.0613 597.139 43.944 597.609 43.768C598.107 43.592 598.445 43.2547 598.621 42.756C598.797 42.2573 598.885 41.4507 598.885 40.336V18.512C598.885 17.3973 598.797 16.5907 598.621 16.092C598.445 15.5933 598.107 15.256 597.609 15.08C597.139 14.904 596.377 14.7867 595.321 14.728V13.848C596.553 13.936 598.43 13.98 600.953 13.98C603.299 13.98 605.162 13.936 606.541 13.848V14.728C605.485 14.7867 604.707 14.904 604.209 15.08C603.739 15.256 603.417 15.5933 603.241 16.092C603.065 16.5907 602.977 17.3973 602.977 18.512V28.368C605.118 28.28 606.79 27.4587 607.993 25.904L612.217 20.536C613.713 18.688 614.461 17.28 614.461 16.312C614.461 15.2853 613.551 14.7573 611.733 14.728V13.848C613.405 13.936 615.091 13.98 616.793 13.98C618.406 13.98 619.653 13.936 620.533 13.848V14.728C619.565 14.8747 618.655 15.1973 617.805 15.696C616.954 16.1653 616.133 16.9133 615.341 17.94L608.169 27.136L618.377 41.436ZM636.033 28.72H646.241V30.04H636.033V40.38H634.449V30.04H624.197V28.72H634.449V18.336H636.033V28.72Z" fill="white"/>
<path d="M548.177 74.601V60.699C548.177 60.489 548.366 60.3 548.576 60.3H549.395C549.626 60.3 549.794 60.489 549.794 60.699V66.831H558.32V60.699C558.32 60.489 558.488 60.3 558.719 60.3H559.538C559.748 60.3 559.937 60.489 559.937 60.699V74.601C559.937 74.811 559.748 75 559.538 75H558.719C558.488 75 558.32 74.811 558.32 74.601V68.238H549.794V74.601C549.794 74.811 549.626 75 549.395 75H548.576C548.366 75 548.177 74.811 548.177 74.601ZM562.565 70.779C562.565 68.406 564.413 66.39 566.744 66.39C569.075 66.39 570.923 68.406 570.923 70.779C570.923 73.194 569.075 75.21 566.744 75.21C564.413 75.21 562.565 73.194 562.565 70.779ZM564.014 70.779C564.014 72.48 565.211 73.845 566.744 73.845C568.277 73.845 569.474 72.48 569.474 70.779C569.474 69.12 568.277 67.776 566.744 67.776C565.211 67.776 564.014 69.12 564.014 70.779ZM573.85 72.9V67.86H572.779C572.548 67.86 572.38 67.671 572.38 67.461V66.999C572.38 66.768 572.548 66.6 572.779 66.6H573.85V64.269C573.85 64.059 574.039 63.87 574.249 63.87L574.921 63.828C575.131 63.828 575.299 64.017 575.299 64.227V66.6H577.735C577.966 66.6 578.134 66.768 578.134 66.999V67.461C578.134 67.671 577.966 67.86 577.735 67.86H575.299V72.774C575.299 73.614 575.509 73.782 575.992 73.782C576.517 73.782 577.252 73.467 577.525 73.32C577.84 73.152 577.924 73.278 578.029 73.446L578.344 73.971C578.491 74.223 578.428 74.349 578.197 74.496C577.903 74.685 576.769 75.21 575.782 75.21C574.102 75.21 573.85 74.202 573.85 72.9ZM579.873 70.8C579.873 68.427 581.448 66.39 583.989 66.39C586.194 66.39 587.79 68.028 587.79 70.233C587.79 70.38 587.769 70.653 587.748 70.8C587.727 71.01 587.559 71.157 587.37 71.157H581.322C581.406 72.564 582.645 73.887 584.136 73.887C585.018 73.887 585.732 73.551 586.215 73.257C586.509 73.089 586.635 72.984 586.803 73.215C586.929 73.383 587.034 73.53 587.16 73.698C587.307 73.887 587.391 74.013 587.076 74.244C586.572 74.643 585.438 75.21 583.989 75.21C581.448 75.21 579.873 73.215 579.873 70.8ZM581.343 69.981H586.341C586.278 68.763 585.27 67.671 583.989 67.671C582.582 67.671 581.49 68.679 581.343 69.981ZM590.101 74.601V60.699C590.101 60.489 590.29 60.3 590.5 60.3H591.151C591.361 60.3 591.55 60.489 591.55 60.699V74.601C591.55 74.811 591.361 75 591.151 75H590.5C590.29 75 590.101 74.811 590.101 74.601ZM594.151 74.265C594.046 74.181 593.983 73.971 594.046 73.824C594.13 73.698 594.277 73.404 594.34 73.299C594.445 73.131 594.676 73.089 594.907 73.236C594.907 73.236 595.81 73.971 596.881 73.971C597.742 73.971 598.246 73.53 598.246 72.963C598.246 72.228 597.616 71.892 596.398 71.283C595.285 70.737 594.004 70.002 594.004 68.574C594.004 67.692 594.718 66.39 596.671 66.39C597.763 66.39 598.603 66.768 599.002 67.041C599.191 67.167 599.254 67.461 599.128 67.692L598.96 68.028C598.834 68.259 598.54 68.322 598.351 68.217C598.351 68.217 597.448 67.713 596.671 67.713C595.726 67.713 595.474 68.196 595.474 68.553C595.474 69.246 596.167 69.561 597.028 69.981C598.477 70.674 599.779 71.325 599.779 72.837C599.779 74.055 598.603 75.21 596.881 75.21C595.474 75.21 594.613 74.622 594.151 74.265ZM609.946 74.916L605.977 60.804C605.893 60.51 606.061 60.3 606.355 60.3H607.237C607.405 60.3 607.573 60.447 607.615 60.594L610.534 71.472H610.618L614.125 60.321C614.167 60.195 614.293 60.09 614.482 60.09H614.86C615.028 60.09 615.175 60.195 615.217 60.321L618.787 71.472H618.871L621.727 60.594C621.769 60.447 621.937 60.3 622.105 60.3H622.987C623.281 60.3 623.449 60.51 623.365 60.804L619.396 74.916C619.354 75.084 619.186 75.21 619.018 75.21H618.682C618.535 75.21 618.388 75.105 618.325 74.979L614.692 63.618H614.587L611.017 74.979C610.954 75.105 610.807 75.21 610.66 75.21H610.324C610.156 75.21 609.988 75.084 609.946 74.916ZM623.944 70.779C623.944 68.406 625.792 66.39 628.123 66.39C630.454 66.39 632.302 68.406 632.302 70.779C632.302 73.194 630.454 75.21 628.123 75.21C625.792 75.21 623.944 73.194 623.944 70.779ZM625.393 70.779C625.393 72.48 626.59 73.845 628.123 73.845C629.656 73.845 630.853 72.48 630.853 70.779C630.853 69.12 629.656 67.776 628.123 67.776C626.59 67.776 625.393 69.12 625.393 70.779ZM634.684 74.601V66.999C634.684 66.789 634.873 66.6 635.083 66.6H635.482C635.65 66.6 635.797 66.705 635.839 66.894L636.007 67.503C636.007 67.503 636.784 66.39 638.527 66.39C639.157 66.39 640.207 66.495 639.997 67.083L639.745 67.797C639.64 68.07 639.451 68.07 639.241 67.986C639.052 67.902 638.737 67.818 638.422 67.818C636.826 67.818 636.133 68.994 636.133 68.994V74.601C636.133 74.811 635.944 75 635.734 75H635.083C634.873 75 634.684 74.811 634.684 74.601ZM641.719 74.601V60.699C641.719 60.489 641.908 60.3 642.118 60.3H642.769C642.979 60.3 643.168 60.489 643.168 60.699V74.601C643.168 74.811 642.979 75 642.769 75H642.118C641.908 75 641.719 74.811 641.719 74.601ZM645.56 70.779C645.56 68.322 647.072 66.39 649.592 66.39C650.978 66.39 651.839 66.936 651.839 66.936V60.699C651.839 60.489 652.028 60.3 652.238 60.3H652.889C653.099 60.3 653.288 60.489 653.288 60.699V74.601C653.288 74.811 653.099 75 652.889 75H652.448C652.259 75 652.133 74.853 652.091 74.664L651.965 74.097C651.965 74.097 650.957 75.21 649.382 75.21C647.24 75.21 645.56 73.194 645.56 70.779ZM647.03 70.8C647.03 72.438 647.996 73.887 649.529 73.887C651.041 73.887 651.818 72.501 651.818 72.501V68.301C651.818 68.301 650.936 67.797 649.781 67.797C647.954 67.797 647.03 69.12 647.03 70.8ZM657.833 75L655.502 67.083C655.418 66.789 655.502 66.6 655.817 66.6H656.468C656.657 66.6 656.804 66.705 656.846 66.831L658.379 72.375H658.4L660.773 66.6C660.815 66.495 660.941 66.39 661.13 66.39H661.235C661.424 66.39 661.55 66.495 661.592 66.6L663.944 72.396H663.965L665.477 66.831C665.519 66.705 665.666 66.6 665.834 66.6H666.485C666.8 66.6 666.884 66.789 666.8 67.083L664.511 75C664.469 75.126 664.322 75.21 664.154 75.21H664.049C663.86 75.21 663.734 75.105 663.692 75L661.13 68.7L658.652 75C658.61 75.105 658.484 75.21 658.295 75.21H658.19C658.001 75.21 657.875 75.126 657.833 75ZM669.666 62.715C669.12 62.715 668.679 62.274 668.679 61.728C668.679 61.161 669.12 60.72 669.666 60.72C670.233 60.72 670.674 61.161 670.674 61.728C670.674 62.274 670.233 62.715 669.666 62.715ZM668.973 74.601V66.999C668.973 66.789 669.162 66.6 669.372 66.6H670.023C670.233 66.6 670.422 66.789 670.422 66.999V74.601C670.422 74.811 670.233 75 670.023 75H669.372C669.162 75 668.973 74.811 668.973 74.601ZM672.794 70.779C672.794 68.322 674.306 66.39 676.826 66.39C678.212 66.39 679.073 66.936 679.073 66.936V60.699C679.073 60.489 679.262 60.3 679.472 60.3H680.123C680.333 60.3 680.522 60.489 680.522 60.699V74.601C680.522 74.811 680.333 75 680.123 75H679.682C679.493 75 679.367 74.853 679.325 74.664L679.199 74.097C679.199 74.097 678.191 75.21 676.616 75.21C674.474 75.21 672.794 73.194 672.794 70.779ZM674.264 70.8C674.264 72.438 675.23 73.887 676.763 73.887C678.275 73.887 679.052 72.501 679.052 72.501V68.301C679.052 68.301 678.17 67.797 677.015 67.797C675.188 67.797 674.264 69.12 674.264 70.8ZM682.925 70.8C682.925 68.427 684.5 66.39 687.041 66.39C689.246 66.39 690.842 68.028 690.842 70.233C690.842 70.38 690.821 70.653 690.8 70.8C690.779 71.01 690.611 71.157 690.422 71.157H684.374C684.458 72.564 685.697 73.887 687.188 73.887C688.07 73.887 688.784 73.551 689.267 73.257C689.561 73.089 689.687 72.984 689.855 73.215C689.981 73.383 690.086 73.53 690.212 73.698C690.359 73.887 690.443 74.013 690.128 74.244C689.624 74.643 688.49 75.21 687.041 75.21C684.5 75.21 682.925 73.215 682.925 70.8ZM684.395 69.981H689.393C689.33 68.763 688.322 67.671 687.041 67.671C685.634 67.671 684.542 68.679 684.395 69.981Z" fill="white"/>
<line x1="768.614" y1="16.5" x2="768.614" y2="65.5" stroke="white"/>
<g clip-path="url(#clip0_172_73)">
<path d="M869.369 30.0425C870.424 28.6389 870.124 26.6586 868.698 25.6195C867.272 24.5804 865.261 24.876 864.205 26.2796C863.15 27.6833 863.45 29.6636 864.876 30.7027C866.302 31.7418 868.313 31.4462 869.369 30.0425Z" fill="#DED056"/>
<path d="M862.784 34.1152C862.783 34.009 862.787 33.9243 862.791 33.8701C862.792 33.8433 862.794 33.824 862.795 33.8134C862.795 33.8117 862.795 33.8103 862.795 33.8091C862.795 33.8077 862.796 33.8062 862.796 33.8048C862.796 33.8046 862.796 33.8045 862.796 33.8044C862.863 33.1891 862.412 32.6357 861.787 32.5669C861.16 32.498 860.595 32.9424 860.525 33.5598H860.525C860.521 33.5925 860.499 33.798 860.499 34.1153C860.505 34.7394 860.565 35.8041 861.143 36.864C861.433 37.3898 861.875 37.9137 862.502 38.2889C863.124 38.6647 863.905 38.8745 864.79 38.8745C864.794 38.8745 864.799 38.8745 864.803 38.8745C865.628 38.8736 866.549 38.7049 867.605 38.3485C868.202 38.1467 868.52 37.5073 868.315 36.9198C868.11 36.3324 867.461 36.0196 866.864 36.2212C865.986 36.5184 865.305 36.6256 864.803 36.6251C864.257 36.6227 863.93 36.5091 863.693 36.3691C863.346 36.1612 863.122 35.823 862.97 35.3748C862.821 34.9354 862.782 34.4307 862.784 34.1152Z" fill="#DED056"/>
<path d="M844.194 48.9509C844.174 49.3905 844.519 49.7633 844.965 49.7836C845.412 49.8042 845.79 49.4644 845.811 49.0248C845.829 48.6333 845.557 48.2954 845.182 48.2118L845.187 48.1096C845.271 48.0986 845.352 48.0753 845.427 48.0404C845.787 48.3755 846.264 48.5913 846.797 48.6161L849.98 48.7635L849.996 48.4146L854.716 48.6138C855.37 48.6412 855.987 48.314 856.324 47.7611L858.454 44.2609L861.116 47.2337L860.307 50.4179L859.961 50.3327L859.188 53.3754C859.051 53.9136 859.14 54.4541 859.393 54.9044C859.356 54.9521 859.325 55.0047 859.299 55.0611L859.18 55.032C859.206 54.6543 858.956 54.301 858.569 54.2061C858.136 54.0997 857.697 54.3595 857.589 54.7864C857.48 55.2133 857.744 55.6454 858.178 55.7519C858.564 55.8466 858.954 55.6505 859.111 55.3048L859.23 55.3339C859.204 55.7118 859.454 56.065 859.841 56.1598C860.149 56.2354 860.458 56.1259 860.652 55.9035C860.683 55.9128 860.714 55.9241 860.747 55.9321C860.807 55.9468 860.866 55.9579 860.926 55.9675C860.99 56.2545 861.212 56.4963 861.521 56.5721C861.907 56.6668 862.297 56.4707 862.454 56.1251L862.555 56.1498C862.529 56.5277 862.78 56.8809 863.166 56.9758C863.6 57.0822 864.039 56.8226 864.147 56.3957C864.255 55.9688 863.991 55.5366 863.557 55.4301C863.171 55.3353 862.781 55.5314 862.624 55.8771L862.523 55.8522C862.529 55.7684 862.521 55.6859 862.501 55.6071C862.906 55.3261 863.215 54.9077 863.344 54.3977L864.117 51.3551L863.77 51.2699L864.806 47.1901C864.948 46.6315 864.801 46.0339 864.414 45.6022L860.069 40.7507C860.407 39.75 860.928 38.7616 861.498 37.8338C861.266 37.5846 861.061 37.3043 860.892 36.9979C860.299 35.9091 860.221 34.8328 860.213 34.1178C860.214 33.801 860.234 33.5873 860.241 33.5293C860.322 32.8157 860.931 32.2783 861.659 32.2783C861.712 32.2783 861.765 32.2813 861.819 32.2872C862.598 32.3727 863.164 33.0664 863.08 33.8337L863.076 33.8852C863.073 33.9382 863.069 34.0161 863.069 34.1139C863.068 34.2667 863.078 34.7899 863.235 35.2667C863.343 35.1142 863.449 34.9645 863.548 34.8215C864.489 33.6978 864.672 31.9514 863.674 31.2004C863.53 31.0915 863.366 30.9969 863.187 30.9187C863.186 30.9182 863.185 30.9175 863.184 30.9169L863.184 30.9166C863.096 30.8789 860.496 29.4959 857.146 29.4846C855.636 29.4838 853.959 29.7798 852.356 30.659C851.804 30.9612 851.606 31.6459 851.913 32.1888C852.22 32.7312 852.916 32.9262 853.467 32.6244C854.666 31.9677 855.931 31.7346 857.146 31.734C857.906 31.7332 858.641 31.8275 859.302 31.9639C859.302 31.9639 859.302 31.9642 859.302 31.9644C857.265 34.1871 856.329 35.7996 855.408 38.8098C855.121 40.0941 855.438 40.9153 855.987 41.4763L853.807 45.0578L850.164 44.9043L850.181 44.5509L846.998 44.4036C846.436 44.3774 845.915 44.5696 845.516 44.9019C845.461 44.8755 845.402 44.8555 845.341 44.8419L845.347 44.7218C845.728 44.6728 846.031 44.3612 846.049 43.9696C846.07 43.5302 845.725 43.1574 845.278 43.1372C844.832 43.1166 844.453 43.4564 844.433 43.8957C844.414 44.2872 844.686 44.625 845.061 44.7086L845.055 44.8286C844.674 44.8778 844.372 45.1894 844.353 45.5808C844.339 45.8928 844.508 46.1703 844.768 46.3129C844.765 46.3455 844.76 46.3776 844.758 46.4106C844.755 46.4714 844.756 46.5312 844.758 46.591C844.485 46.7086 844.288 46.9704 844.273 47.2834C844.254 47.6749 844.526 48.0129 844.901 48.0965L844.897 48.1988C844.515 48.2482 844.213 48.5597 844.194 48.9509ZM860.123 55.0453C860.265 55.0802 860.366 55.1948 860.389 55.3287L859.753 55.1727C859.837 55.065 859.98 55.0103 860.123 55.0453ZM861.433 55.585C861.517 55.4773 861.66 55.4226 861.803 55.4576C861.945 55.4926 862.046 55.6072 862.069 55.7412L861.433 55.585ZM858.287 55.3211C858.095 55.2741 857.979 55.0829 858.026 54.8941C858.074 54.7052 858.268 54.5902 858.46 54.6374C858.603 54.6723 858.703 54.7868 858.726 54.9207L858.408 54.8426C858.331 54.8241 858.254 54.8698 858.235 54.9451C858.216 55.0205 858.262 55.0968 858.339 55.1155L858.657 55.1935C858.573 55.3013 858.429 55.356 858.287 55.3211ZM859.95 55.7291C859.807 55.6941 859.707 55.5795 859.684 55.4455L860.32 55.6016C860.236 55.7094 860.092 55.7641 859.95 55.7291ZM861.63 56.1414C861.487 56.1064 861.386 55.9919 861.364 55.8578L862 56.014C861.916 56.1217 861.772 56.1764 861.63 56.1414ZM863.448 55.8615C863.64 55.9084 863.756 56.0998 863.709 56.2886C863.661 56.4773 863.467 56.5923 863.275 56.5454C863.133 56.5104 863.032 56.3958 863.009 56.2618L863.327 56.3399C863.339 56.3427 863.35 56.3439 863.361 56.3439C863.425 56.3439 863.484 56.3013 863.5 56.2374C863.519 56.162 863.473 56.0857 863.396 56.067L863.078 55.989C863.162 55.881 863.306 55.8265 863.448 55.8615ZM863.506 52.6025L862.402 52.3236L862.287 52.7661L863.393 53.0456L863.248 53.6152L862.17 53.3427L862.055 53.7853L863.136 54.0584L863.067 54.33C862.96 54.7493 862.712 55.1026 862.381 55.3477C862.273 55.1935 862.111 55.0756 861.912 55.0266C861.525 54.9319 861.135 55.128 860.978 55.4735L860.843 55.4402C860.869 55.0625 860.618 54.7092 860.232 54.6145C860.011 54.5604 859.789 54.6013 859.61 54.7104C859.408 54.3185 859.355 53.8741 859.465 53.4438L860.168 50.6736L863.77 51.5602L863.506 52.6025ZM845.36 49.0043C845.351 49.1986 845.184 49.3488 844.986 49.3398C844.789 49.331 844.636 49.166 844.645 48.9718C844.652 48.8275 844.746 48.7078 844.875 48.6592L844.86 48.9814C844.856 49.0591 844.917 49.1249 844.996 49.1283C844.998 49.1284 845 49.1284 845.003 49.1284C845.079 49.1284 845.142 49.0697 845.145 48.9943L845.16 48.6719C845.284 48.7319 845.367 48.8598 845.36 49.0043ZM845.319 45.3021C845.443 45.362 845.526 45.4897 845.519 45.6341C845.512 45.7786 845.418 45.8984 845.289 45.9469L845.319 45.3021ZM845.208 47.6496L845.239 47.0047C845.363 47.0646 845.446 47.1925 845.439 47.337C845.432 47.4812 845.338 47.6011 845.208 47.6496ZM846.985 44.6843L849.882 44.8185L849.708 48.4694L848.617 48.4191L848.678 47.2993L848.215 47.275L848.154 48.3977L847.558 48.3702L847.617 47.2758L847.154 47.2514L847.095 48.3487L846.811 48.3356C846.372 48.3151 845.972 48.1451 845.662 47.8738C845.794 47.7393 845.88 47.5591 845.889 47.3574C845.908 46.9659 845.636 46.6281 845.261 46.5443L845.267 46.407C845.649 46.3581 845.951 46.0466 845.97 45.6548C845.98 45.4314 845.896 45.2255 845.752 45.0741C846.103 44.8021 846.535 44.6633 846.985 44.6843ZM844.883 43.9163C844.892 43.7221 845.06 43.5721 845.257 43.5809C845.455 43.5899 845.607 43.7545 845.599 43.9491C845.592 44.0933 845.497 44.2131 845.368 44.2616L845.384 43.9393C845.387 43.8615 845.326 43.7957 845.247 43.7922C845.169 43.7884 845.102 43.8484 845.098 43.9262L845.083 44.2484C844.959 44.1885 844.877 44.0607 844.883 43.9163ZM844.804 45.6016C844.811 45.4573 844.905 45.3377 845.034 45.2892L845.004 45.9337C844.88 45.8737 844.797 45.746 844.804 45.6016ZM844.724 47.3044C844.731 47.1599 844.825 47.0402 844.954 46.9918L844.923 47.6363C844.799 47.5762 844.717 47.4485 844.724 47.3044Z" fill="#DED056"/>
</g>
<path d="M910.736 21.724C912.789 21.724 914.403 22.208 915.576 23.176C916.749 24.144 917.336 25.508 917.336 27.268C917.336 28.4707 917.013 29.644 916.368 30.788C915.752 31.9027 914.989 32.9293 914.08 33.868C913.2 34.8067 912.027 35.936 910.56 37.256C909.357 38.3707 908.463 39.2213 907.876 39.808C907.289 40.3653 906.761 40.9667 906.292 41.612H915.224C916.016 41.612 916.603 41.5533 916.984 41.436C917.395 41.2893 917.673 41.0693 917.82 40.776C917.967 40.4533 918.084 39.984 918.172 39.368H918.92C918.92 42.0667 918.979 44.0173 919.096 45.22C918.451 45.0733 916.265 45 912.54 45H902.244V44.252C902.743 43.724 903.593 42.888 904.796 41.744C906.468 40.1893 907.861 38.796 908.976 37.564C910.091 36.3027 911.044 34.88 911.836 33.296C912.657 31.712 913.068 30.0253 913.068 28.236C913.068 25.068 911.601 23.484 908.668 23.484C906.263 23.484 904.297 24.8627 902.772 27.62L902.068 27.224C902.831 25.64 903.916 24.3347 905.324 23.308C906.732 22.252 908.536 21.724 910.736 21.724ZM957.531 14.728C956.475 14.7867 955.697 14.904 955.199 15.08C954.729 15.256 954.407 15.5933 954.231 16.092C954.055 16.5907 953.967 17.3973 953.967 18.512V40.336C953.967 41.4507 954.055 42.2573 954.231 42.756C954.407 43.2547 954.729 43.592 955.199 43.768C955.697 43.944 956.475 44.0613 957.531 44.12V45C956.181 44.912 954.319 44.868 951.943 44.868C949.42 44.868 947.543 44.912 946.311 45V44.12C947.367 44.0613 948.129 43.944 948.599 43.768C949.097 43.592 949.435 43.2547 949.611 42.756C949.787 42.2573 949.875 41.4507 949.875 40.336V16.752L939.271 45.22H938.567L927.479 16.664V39.896C927.479 41.04 927.567 41.8907 927.743 42.448C927.948 43.0053 928.329 43.416 928.887 43.68C929.444 43.9147 930.309 44.0613 931.483 44.12V45C930.427 44.912 928.931 44.868 926.995 44.868C925.235 44.868 923.871 44.912 922.903 45V44.12C923.929 44.0613 924.692 43.9147 925.191 43.68C925.689 43.416 926.027 43.0053 926.203 42.448C926.379 41.8613 926.467 41.0107 926.467 39.896V18.512C926.467 17.3973 926.379 16.5907 926.203 16.092C926.027 15.5933 925.689 15.256 925.191 15.08C924.721 14.904 923.959 14.7867 922.903 14.728V13.848C923.871 13.936 925.235 13.98 926.995 13.98C928.52 13.98 929.767 13.936 930.735 13.848L940.415 39.324L949.875 13.98H951.943C954.319 13.98 956.181 13.936 957.531 13.848V14.728ZM973.111 28.72H983.319V30.04H973.111V40.38H971.527V30.04H961.275V28.72H971.527V18.336H973.111V28.72Z" fill="white"/>
<path d="M900.483 75C900.168 75 900 74.727 900.126 74.454L906.51 60.321C906.573 60.195 906.678 60.09 906.867 60.09H907.077C907.266 60.09 907.371 60.195 907.434 60.321L913.776 74.454C913.902 74.727 913.734 75 913.419 75H912.579C912.39 75 912.264 74.874 912.222 74.769L910.668 71.304H903.213L901.68 74.769C901.638 74.874 901.512 75 901.323 75H900.483ZM903.801 70.002H910.101C909.072 67.713 908.064 65.403 907.035 63.114H906.867L903.801 70.002ZM914.786 70.821C914.786 68.343 916.823 66.39 919.112 66.39C920.372 66.39 921.359 66.894 922.115 67.86C922.262 68.049 922.22 68.301 922.031 68.448L921.632 68.784C921.317 69.078 921.212 68.868 921.023 68.7C920.603 68.217 919.91 67.818 919.091 67.818C917.516 67.818 916.298 69.12 916.298 70.8C916.298 72.48 917.495 73.824 919.07 73.824C920.33 73.824 920.813 73.194 921.296 72.732C921.548 72.48 921.695 72.522 921.926 72.69L922.157 72.858C922.367 73.005 922.43 73.236 922.304 73.446C921.674 74.454 920.519 75.21 919.091 75.21C916.76 75.21 914.786 73.341 914.786 70.821ZM925.231 72.9V67.86H924.16C923.929 67.86 923.761 67.671 923.761 67.461V66.999C923.761 66.768 923.929 66.6 924.16 66.6H925.231V64.269C925.231 64.059 925.42 63.87 925.63 63.87L926.302 63.828C926.512 63.828 926.68 64.017 926.68 64.227V66.6H929.116C929.347 66.6 929.515 66.768 929.515 66.999V67.461C929.515 67.671 929.347 67.86 929.116 67.86H926.68V72.774C926.68 73.614 926.89 73.782 927.373 73.782C927.898 73.782 928.633 73.467 928.906 73.32C929.221 73.152 929.305 73.278 929.41 73.446L929.725 73.971C929.872 74.223 929.809 74.349 929.578 74.496C929.284 74.685 928.15 75.21 927.163 75.21C925.483 75.21 925.231 74.202 925.231 72.9ZM932.556 62.715C932.01 62.715 931.569 62.274 931.569 61.728C931.569 61.161 932.01 60.72 932.556 60.72C933.123 60.72 933.564 61.161 933.564 61.728C933.564 62.274 933.123 62.715 932.556 62.715ZM931.863 74.601V66.999C931.863 66.789 932.052 66.6 932.262 66.6H932.913C933.123 66.6 933.312 66.789 933.312 66.999V74.601C933.312 74.811 933.123 75 932.913 75H932.262C932.052 75 931.863 74.811 931.863 74.601ZM938.687 75L935.138 67.083C935.012 66.81 935.138 66.6 935.453 66.6H936.104C936.293 66.6 936.419 66.705 936.482 66.831L939.086 72.837H939.107L941.879 66.831C941.942 66.705 942.068 66.6 942.236 66.6H942.782C943.097 66.6 943.223 66.81 943.097 67.083L939.506 75C939.464 75.105 939.338 75.21 939.149 75.21H939.044C938.855 75.21 938.729 75.105 938.687 75ZM945.619 62.715C945.073 62.715 944.632 62.274 944.632 61.728C944.632 61.161 945.073 60.72 945.619 60.72C946.186 60.72 946.627 61.161 946.627 61.728C946.627 62.274 946.186 62.715 945.619 62.715ZM944.926 74.601V66.999C944.926 66.789 945.115 66.6 945.325 66.6H945.976C946.186 66.6 946.375 66.789 946.375 66.999V74.601C946.375 74.811 946.186 75 945.976 75H945.325C945.115 75 944.926 74.811 944.926 74.601ZM949.902 72.9V67.86H948.831C948.6 67.86 948.432 67.671 948.432 67.461V66.999C948.432 66.768 948.6 66.6 948.831 66.6H949.902V64.269C949.902 64.059 950.091 63.87 950.301 63.87L950.973 63.828C951.183 63.828 951.351 64.017 951.351 64.227V66.6H953.787C954.018 66.6 954.186 66.768 954.186 66.999V67.461C954.186 67.671 954.018 67.86 953.787 67.86H951.351V72.774C951.351 73.614 951.561 73.782 952.044 73.782C952.569 73.782 953.304 73.467 953.577 73.32C953.892 73.152 953.976 73.278 954.081 73.446L954.396 73.971C954.543 74.223 954.48 74.349 954.249 74.496C953.955 74.685 952.821 75.21 951.834 75.21C950.154 75.21 949.902 74.202 949.902 72.9ZM957.227 62.715C956.681 62.715 956.24 62.274 956.24 61.728C956.24 61.161 956.681 60.72 957.227 60.72C957.794 60.72 958.235 61.161 958.235 61.728C958.235 62.274 957.794 62.715 957.227 62.715ZM956.534 74.601V66.999C956.534 66.789 956.723 66.6 956.933 66.6H957.584C957.794 66.6 957.983 66.789 957.983 66.999V74.601C957.983 74.811 957.794 75 957.584 75H956.933C956.723 75 956.534 74.811 956.534 74.601ZM960.355 70.8C960.355 68.427 961.93 66.39 964.471 66.39C966.676 66.39 968.272 68.028 968.272 70.233C968.272 70.38 968.251 70.653 968.23 70.8C968.209 71.01 968.041 71.157 967.852 71.157H961.804C961.888 72.564 963.127 73.887 964.618 73.887C965.5 73.887 966.214 73.551 966.697 73.257C966.991 73.089 967.117 72.984 967.285 73.215C967.411 73.383 967.516 73.53 967.642 73.698C967.789 73.887 967.873 74.013 967.558 74.244C967.054 74.643 965.92 75.21 964.471 75.21C961.93 75.21 960.355 73.215 960.355 70.8ZM961.825 69.981H966.823C966.76 68.763 965.752 67.671 964.471 67.671C963.064 67.671 961.972 68.679 961.825 69.981ZM970.162 74.265C970.057 74.181 969.994 73.971 970.057 73.824C970.141 73.698 970.288 73.404 970.351 73.299C970.456 73.131 970.687 73.089 970.918 73.236C970.918 73.236 971.821 73.971 972.892 73.971C973.753 73.971 974.257 73.53 974.257 72.963C974.257 72.228 973.627 71.892 972.409 71.283C971.296 70.737 970.015 70.002 970.015 68.574C970.015 67.692 970.729 66.39 972.682 66.39C973.774 66.39 974.614 66.768 975.013 67.041C975.202 67.167 975.265 67.461 975.139 67.692L974.971 68.028C974.845 68.259 974.551 68.322 974.362 68.217C974.362 68.217 973.459 67.713 972.682 67.713C971.737 67.713 971.485 68.196 971.485 68.553C971.485 69.246 972.178 69.561 973.039 69.981C974.488 70.674 975.79 71.325 975.79 72.837C975.79 74.055 974.614 75.21 972.892 75.21C971.485 75.21 970.624 74.622 970.162 74.265ZM981.694 75C981.379 75 981.211 74.727 981.337 74.454L987.721 60.321C987.784 60.195 987.889 60.09 988.078 60.09H988.288C988.477 60.09 988.582 60.195 988.645 60.321L994.987 74.454C995.113 74.727 994.945 75 994.63 75H993.79C993.601 75 993.475 74.874 993.433 74.769L991.879 71.304H984.424L982.891 74.769C982.849 74.874 982.723 75 982.534 75H981.694ZM985.012 70.002H991.312C990.283 67.713 989.275 65.403 988.246 63.114H988.078L985.012 70.002ZM998.611 75L995.062 67.083C994.936 66.81 995.062 66.6 995.377 66.6H996.028C996.217 66.6 996.343 66.705 996.406 66.831L999.01 72.837H999.031L1001.8 66.831C1001.87 66.705 1001.99 66.6 1002.16 66.6H1002.71C1003.02 66.6 1003.15 66.81 1003.02 67.083L999.43 75C999.388 75.105 999.262 75.21 999.073 75.21H998.968C998.779 75.21 998.653 75.105 998.611 75ZM1004.24 72.459C1004.24 70.863 1005.44 69.666 1007.6 69.666C1008.5 69.666 1009.39 69.939 1009.39 69.939C1009.41 68.385 1009.22 67.671 1008.02 67.671C1006.87 67.671 1005.88 67.986 1005.5 68.133C1005.29 68.217 1005.17 68.112 1005.1 67.923L1004.93 67.398C1004.85 67.146 1004.98 67.02 1005.17 66.936C1005.29 66.873 1006.51 66.39 1008.08 66.39C1010.23 66.39 1010.75 67.482 1010.75 69.939V74.601C1010.75 74.811 1010.56 75 1010.35 75H1009.95C1009.72 75 1009.66 74.874 1009.6 74.685L1009.43 74.118C1008.99 74.559 1008.13 75.21 1006.82 75.21C1005.35 75.21 1004.24 74.139 1004.24 72.459ZM1005.59 72.459C1005.59 73.299 1006.15 73.95 1007.06 73.95C1008.11 73.95 1009.01 73.299 1009.37 72.774V71.115C1009.11 70.968 1008.53 70.779 1007.6 70.779C1006.43 70.779 1005.59 71.367 1005.59 72.459ZM1014.36 62.715C1013.82 62.715 1013.37 62.274 1013.37 61.728C1013.37 61.161 1013.82 60.72 1014.36 60.72C1014.93 60.72 1015.37 61.161 1015.37 61.728C1015.37 62.274 1014.93 62.715 1014.36 62.715ZM1013.67 74.601V66.999C1013.67 66.789 1013.86 66.6 1014.07 66.6H1014.72C1014.93 66.6 1015.12 66.789 1015.12 66.999V74.601C1015.12 74.811 1014.93 75 1014.72 75H1014.07C1013.86 75 1013.67 74.811 1013.67 74.601ZM1018.12 74.601V60.699C1018.12 60.489 1018.31 60.3 1018.52 60.3H1019.17C1019.38 60.3 1019.57 60.489 1019.57 60.699V74.601C1019.57 74.811 1019.38 75 1019.17 75H1018.52C1018.31 75 1018.12 74.811 1018.12 74.601ZM1021.96 72.459C1021.96 70.863 1023.16 69.666 1025.32 69.666C1026.22 69.666 1027.11 69.939 1027.11 69.939C1027.13 68.385 1026.94 67.671 1025.74 67.671C1024.59 67.671 1023.6 67.986 1023.22 68.133C1023.01 68.217 1022.88 68.112 1022.82 67.923L1022.65 67.398C1022.57 67.146 1022.7 67.02 1022.88 66.936C1023.01 66.873 1024.23 66.39 1025.8 66.39C1027.95 66.39 1028.47 67.482 1028.47 69.939V74.601C1028.47 74.811 1028.28 75 1028.07 75H1027.67C1027.44 75 1027.38 74.874 1027.32 74.685L1027.15 74.118C1026.71 74.559 1025.85 75.21 1024.54 75.21C1023.07 75.21 1021.96 74.139 1021.96 72.459ZM1023.3 72.459C1023.3 73.299 1023.87 73.95 1024.77 73.95C1025.82 73.95 1026.73 73.299 1027.08 72.774V71.115C1026.83 70.968 1026.24 70.779 1025.32 70.779C1024.14 70.779 1023.3 71.367 1023.3 72.459ZM1031.41 74.601V60.699C1031.41 60.489 1031.6 60.3 1031.81 60.3H1032.46C1032.67 60.3 1032.86 60.489 1032.86 60.699V66.936C1032.86 66.936 1033.72 66.39 1035.1 66.39C1037.62 66.39 1039.14 68.322 1039.14 70.779C1039.14 73.194 1037.46 75.21 1035.31 75.21C1033.74 75.21 1032.73 74.097 1032.73 74.097L1032.61 74.664C1032.56 74.853 1032.44 75 1032.25 75H1031.81C1031.6 75 1031.41 74.811 1031.41 74.601ZM1032.88 72.501C1032.88 72.501 1033.66 73.887 1035.17 73.887C1036.7 73.887 1037.67 72.438 1037.67 70.8C1037.67 69.12 1036.74 67.797 1034.92 67.797C1033.76 67.797 1032.88 68.301 1032.88 68.301V72.501ZM1041.54 74.601V60.699C1041.54 60.489 1041.73 60.3 1041.94 60.3H1042.59C1042.8 60.3 1042.99 60.489 1042.99 60.699V74.601C1042.99 74.811 1042.8 75 1042.59 75H1041.94C1041.73 75 1041.54 74.811 1041.54 74.601ZM1045.38 70.8C1045.38 68.427 1046.95 66.39 1049.5 66.39C1051.7 66.39 1053.3 68.028 1053.3 70.233C1053.3 70.38 1053.28 70.653 1053.25 70.8C1053.23 71.01 1053.07 71.157 1052.88 71.157H1046.83C1046.91 72.564 1048.15 73.887 1049.64 73.887C1050.52 73.887 1051.24 73.551 1051.72 73.257C1052.02 73.089 1052.14 72.984 1052.31 73.215C1052.44 73.383 1052.54 73.53 1052.67 73.698C1052.81 73.887 1052.9 74.013 1052.58 74.244C1052.08 74.643 1050.94 75.21 1049.5 75.21C1046.95 75.21 1045.38 73.215 1045.38 70.8ZM1046.85 69.981H1051.85C1051.78 68.763 1050.78 67.671 1049.5 67.671C1048.09 67.671 1047 68.679 1046.85 69.981Z" fill="white"/>
<defs>
<clipPath id="clip0_172_73">
<rect width="25.8065" height="32" fill="white" transform="translate(844.193 25)"/>
</clipPath>
</defs>
</svg>
