<svg width="20" height="20" viewBox="0 0 20 20" fill="none" xmlns="http://www.w3.org/2000/svg">
<path fill-rule="evenodd" clip-rule="evenodd" d="M8.8 5H11.2C13.4626 5 14.5942 5 15.2968 5.7032C15.8032 6.209 15.9448 6.9374 15.9844 8.15H4.0156C4.0552 6.9374 4.1968 6.209 4.7032 5.7032C5.4058 5 6.5374 5 8.8 5ZM11.2 14.6H8.8C6.5374 14.6 5.4058 14.6 4.7032 13.8968C4 13.1942 4 12.0626 4 9.8C4 9.5348 4 9.2852 4.0012 9.05H15.9988C16 9.2852 16 9.5348 16 9.8C16 12.0626 16 13.1942 15.2968 13.8968C14.5942 14.6 13.4626 14.6 11.2 14.6ZM6.4 11.75C6.28065 11.75 6.16619 11.7974 6.0818 11.8818C5.99741 11.9662 5.95 12.0807 5.95 12.2C5.95 12.3193 5.99741 12.4338 6.0818 12.5182C6.16619 12.6026 6.28065 12.65 6.4 12.65H8.8C8.91935 12.65 9.03381 12.6026 9.1182 12.5182C9.20259 12.4338 9.25 12.3193 9.25 12.2C9.25 12.0807 9.20259 11.9662 9.1182 11.8818C9.03381 11.7974 8.91935 11.75 8.8 11.75H6.4ZM10.3 11.75C10.1807 11.75 10.0662 11.7974 9.9818 11.8818C9.89741 11.9662 9.85 12.0807 9.85 12.2C9.85 12.3193 9.89741 12.4338 9.9818 12.5182C10.0662 12.6026 10.1807 12.65 10.3 12.65H11.2C11.3193 12.65 11.4338 12.6026 11.5182 12.5182C11.6026 12.4338 11.65 12.3193 11.65 12.2C11.65 12.0807 11.6026 11.9662 11.5182 11.8818C11.4338 11.7974 11.3193 11.75 11.2 11.75H10.3Z" fill="#BA6619"/>
</svg>
