<svg width="86" height="86" viewBox="0 0 86 86" fill="none" xmlns="http://www.w3.org/2000/svg">
<path d="M58.2051 42.1417C50.5084 40.4454 42.8033 38.7491 35.1066 37.0528C35.0264 37.2596 34.942 37.4621 34.8576 37.6731C37.1447 39.3103 39.4571 40.9054 41.7019 42.6017C42.9974 43.5764 44.2928 44.6018 45.3857 45.7875C47.6348 48.2392 46.8457 50.7161 43.5924 51.5474C42.491 51.8301 41.3053 52.0116 40.1828 51.9187C34.845 51.4588 29.5155 50.8976 24.1818 50.3574C23.8063 50.3195 23.3843 50.2604 23.0931 50.0536C22.8273 49.8637 22.5066 49.4249 22.5572 49.1717C22.6416 48.7835 22.9919 48.1885 23.2915 48.1506C24.3211 48.0155 25.3844 48.0155 26.4267 48.0873C30.7223 48.3826 35.018 48.7708 39.3178 49.0198C40.609 49.0958 41.9214 48.8299 43.8455 48.6696C42.7189 47.5429 42.1112 46.7412 41.3264 46.1842C37.8156 43.6861 34.25 41.2767 30.7181 38.8082C29.9375 38.2638 29.0766 37.7153 28.5323 36.9684C28.0302 36.2721 27.5702 35.2468 27.6926 34.4577C27.874 33.272 29.0598 32.9555 30.1822 32.9977C31.2329 33.0357 32.3005 33.0905 33.3216 33.3015C39.5077 34.5843 45.6853 35.9177 51.8671 37.23C52.863 37.441 53.8546 37.6393 55.4497 37.96C52.9854 35.3945 49.6476 34.9261 47.9091 31.5166C49.2214 31.5883 50.0527 31.4575 50.7531 31.7022C56.2978 33.618 61.4543 36.3523 66.3786 39.5213C68.4378 40.8463 68.2522 42.838 66.0495 43.9773C65.0452 44.4921 63.9143 44.8887 62.8003 45.0491C59.6736 45.4837 56.5299 45.8086 53.3778 46.0745C52.8419 46.1209 51.9558 45.7833 51.7743 45.3824C51.3777 44.5048 52.095 43.9562 52.8925 43.7494C54.6479 43.2937 56.4202 42.9139 58.1798 42.5046C58.1882 42.3865 58.1967 42.2683 58.2093 42.146L58.2051 42.1417Z" fill="#362F08"/>
</svg>
