<svg width="17" height="20" viewBox="0 0 17 20" fill="none" xmlns="http://www.w3.org/2000/svg">
<path d="M5.4758 8.95463V10.3388C5.14081 10.5325 4.85484 10.8006 4.64001 11.1225C4.42518 11.4443 4.28724 11.8112 4.23685 12.1949C4.18646 12.5785 4.22497 12.9687 4.34941 13.3351C4.47385 13.7015 4.68088 14.0343 4.95449 14.3079C5.22811 14.5816 5.56099 14.7886 5.92739 14.913C6.29379 15.0375 6.68389 15.076 7.06755 15.0256C7.45121 14.9752 7.81814 14.8373 8.13998 14.6224C8.46182 14.4076 8.72995 14.1216 8.92363 13.7866H10.3072C10.0937 14.3892 9.73103 14.9278 9.2531 15.3524C8.77517 15.7769 8.19751 16.0735 7.574 16.2145C6.95048 16.3554 6.30142 16.3362 5.68734 16.1586C5.07326 15.9809 4.51418 15.6507 4.06221 15.1986C3.61025 14.7465 3.28014 14.1873 3.10267 13.5732C2.92519 12.9591 2.90613 12.31 3.04727 11.6866C3.18841 11.0631 3.48514 10.4855 3.9098 10.0077C4.33446 9.52985 4.8732 9.16799 5.4758 8.95463ZM7.99937 13.1557C7.4974 13.1557 7.01599 12.9563 6.66105 12.6014C6.3061 12.2465 6.10669 11.765 6.10669 11.2631V8.7395C6.10669 8.23753 6.3061 7.75612 6.66105 7.40117C7.01599 7.04622 7.4974 6.84682 7.99937 6.84682C8.50134 6.84682 8.98275 7.04622 9.3377 7.40117C9.69265 7.75612 9.89205 8.23753 9.89205 8.7395V11.894H10.7968C10.9974 11.894 11.1951 11.9419 11.3735 12.0336C11.5519 12.1253 11.7058 12.2583 11.8226 12.4214L11.8787 12.5066L13.5878 15.3544L12.5058 16.0042L10.7955 13.1557H7.99874H7.99937ZM7.99937 3.69235C8.41768 3.69235 8.81886 3.85852 9.11464 4.15431C9.41043 4.4501 9.57661 4.85128 9.57661 5.26959C9.57661 5.68789 9.41043 6.08907 9.11464 6.38486C8.81886 6.68065 8.41768 6.84682 7.99937 6.84682C7.58106 6.84682 7.17989 6.68065 6.8841 6.38486C6.58831 6.08907 6.42214 5.68789 6.42214 5.26959C6.42214 4.85128 6.58831 4.4501 6.8841 4.15431C7.17989 3.85852 7.58106 3.69235 7.99937 3.69235Z" fill="#BA6619"/>
</svg>
